<svg width="42" height="42" viewBox="0 0 42 42" fill="none" xmlns="http://www.w3.org/2000/svg">
<g id="Group 10444">
<g id="Group 10445">
<g id="Ellipse 210" filter="url(#filter0_b_2016_195)">
<circle cx="20.7087" cy="20.969" r="20.5325" fill="white" fill-opacity="0.15"/>
</g>
<g id="Group 1914">
<path id="Instagram" d="M24.8266 30.6216H16.5905C14.9812 30.6199 13.4383 30.0134 12.3003 28.9352C11.1624 27.8569 10.5223 26.3951 10.5206 24.8703L10.5206 17.0672C10.5224 15.5426 11.1625 14.0808 12.3005 13.0027C13.4384 11.9246 14.9813 11.3181 16.5905 11.3164H24.8266C26.4359 11.318 27.9789 11.9244 29.1169 13.0025C30.2549 14.0807 30.8951 15.5425 30.8969 17.0672V24.8703C30.8952 26.3952 30.2551 27.8571 29.117 28.9353C27.979 30.0135 26.436 30.62 24.8266 30.6216ZM16.5905 13.2581C15.5246 13.2593 14.5027 13.661 13.749 14.3751C12.9953 15.0892 12.5713 16.0574 12.5701 17.0672V24.8703C12.5713 25.8802 12.9953 26.8483 13.7491 27.5623C14.5028 28.2764 15.5247 28.678 16.5905 28.679H24.8266C25.8924 28.678 26.9142 28.2763 27.6679 27.5623C28.4215 26.8483 28.8454 25.8801 28.8466 24.8703V17.0672C28.8454 16.0574 28.4215 15.0892 27.6679 14.3751C26.9143 13.661 25.8924 13.2593 24.8266 13.2581H16.5905ZM20.7075 25.9613C19.6653 25.9609 18.6466 25.6678 17.7802 25.119C16.9138 24.5702 16.2387 23.7903 15.8401 22.878C15.4415 21.9656 15.3374 20.9618 15.541 19.9934C15.7446 19.025 16.2466 18.1356 16.9837 17.4375C17.7208 16.7395 18.6598 16.2641 19.682 16.0717C20.7042 15.8792 21.7637 15.9782 22.7265 16.3562C23.6893 16.7342 24.5122 17.3742 25.0911 18.1953C25.67 19.0163 25.9789 19.9816 25.9789 20.969C25.9775 22.2928 25.4218 23.562 24.4338 24.4981C23.4457 25.4341 22.106 25.9605 20.7088 25.9617L20.7075 25.9613ZM20.7075 17.9164C20.0706 17.9164 19.448 18.0954 18.9184 18.4306C18.3889 18.7658 17.9761 19.2423 17.7324 19.7998C17.4886 20.3573 17.4249 20.9708 17.5491 21.5626C17.6734 22.1544 17.9801 22.698 18.4304 23.1247C18.8808 23.5514 19.4546 23.842 20.0792 23.9597C20.7039 24.0774 21.3514 24.017 21.9398 23.7861C22.5282 23.5552 23.0311 23.1641 23.385 22.6624C23.7388 22.1607 23.9277 21.5708 23.9277 20.9674C23.9263 20.159 23.5867 19.384 22.9834 18.8125C22.38 18.2409 21.562 17.9192 20.7088 17.918L20.7075 17.9164ZM25.9874 17.2082C25.7377 17.2082 25.4935 17.1379 25.2859 17.0064C25.0782 16.8748 24.9164 16.6879 24.8209 16.4692C24.7254 16.2505 24.7004 16.0099 24.7493 15.7778C24.7981 15.5457 24.9184 15.3326 25.0951 15.1653C25.2718 14.998 25.4969 14.8841 25.7419 14.838C25.9869 14.7919 26.2408 14.8157 26.4716 14.9063C26.7023 14.997 26.8995 15.1504 27.0382 15.3472C27.1769 15.544 27.2509 15.7754 27.2508 16.0121C27.2508 16.3294 27.1179 16.6337 26.8813 16.8583C26.6447 17.0829 26.3237 17.2093 25.9887 17.2099L25.9874 17.2082Z" fill="white"/>
</g>
</g>
</g>
<defs>
<filter id="filter0_b_2016_195" x="-6.82373" y="-6.56348" width="55.0649" height="55.0649" filterUnits="userSpaceOnUse" color-interpolation-filters="sRGB">
<feFlood flood-opacity="0" result="BackgroundImageFix"/>
<feGaussianBlur in="BackgroundImageFix" stdDeviation="3.5"/>
<feComposite in2="SourceAlpha" operator="in" result="effect1_backgroundBlur_2016_195"/>
<feBlend mode="normal" in="SourceGraphic" in2="effect1_backgroundBlur_2016_195" result="shape"/>
</filter>
</defs>
</svg>
