<svg width="42" height="42" viewBox="0 0 42 42" fill="none" xmlns="http://www.w3.org/2000/svg">
<g id="Group 10443">
<g id="Ellipse 210" filter="url(#filter0_b_2016_178)">
<circle cx="21.2947" cy="20.969" r="20.5325" fill="white" fill-opacity="0.15"/>
</g>
<g id="Group 954">
<g id="Group 9956">
<path id="Vector" d="M16.696 29.0479C18.0549 29.8256 19.6239 30.267 21.2967 30.267C26.4249 30.267 30.5927 26.0964 30.5927 20.969C30.5927 15.8416 26.4249 11.671 21.2967 11.671H21.2927C16.1645 11.671 11.9967 15.8405 11.9967 20.969C11.9967 22.7688 12.5109 24.4549 13.4028 25.8809L12.591 28.3009L11.8172 30.6075L14.1346 29.8667L16.696 29.0479Z" stroke="white" stroke-width="2.46469"/>
<g id="Group 9955">
<path id="Vector_2" d="M25.3134 24.9195L25.245 24.9879C24.9038 25.3318 24.4466 25.5361 23.9628 25.5606H23.6252C21.8386 25.5606 20.4025 24.8938 18.8854 23.3808C17.274 21.7695 16.6244 20.2522 16.7142 18.3032H16.7141C16.7386 17.8194 16.9429 17.3622 17.2868 17.021L17.3552 16.9526C17.7878 16.5182 18.3995 16.3121 19.0068 16.3961C19.6141 16.4801 20.1469 16.8444 20.4454 17.38L20.5394 17.551H20.5393C20.658 17.7673 20.7035 18.0162 20.6688 18.2605C20.6342 18.5047 20.5212 18.7312 20.347 18.9059L19.7743 19.4786C20.105 20.1151 20.5381 20.6926 21.0565 21.1882C21.5521 21.7067 22.1297 22.1398 22.7661 22.4704L23.3345 21.9062C23.5133 21.7306 23.745 21.6187 23.9938 21.5878C24.2425 21.5569 24.4945 21.6087 24.7108 21.7353L24.8818 21.8293C25.4174 22.1279 25.7817 22.6605 25.8657 23.2679C25.9497 23.8752 25.7436 24.4868 25.3092 24.9194L25.3134 24.9195Z" fill="white"/>
</g>
</g>
</g>
</g>
<defs>
<filter id="filter0_b_2016_178" x="-6.23779" y="-6.56348" width="55.0649" height="55.0649" filterUnits="userSpaceOnUse" color-interpolation-filters="sRGB">
<feFlood flood-opacity="0" result="BackgroundImageFix"/>
<feGaussianBlur in="BackgroundImageFix" stdDeviation="3.5"/>
<feComposite in2="SourceAlpha" operator="in" result="effect1_backgroundBlur_2016_178"/>
<feBlend mode="normal" in="SourceGraphic" in2="effect1_backgroundBlur_2016_178" result="shape"/>
</filter>
</defs>
</svg>
