<svg width="42" height="42" viewBox="0 0 42 42" fill="none" xmlns="http://www.w3.org/2000/svg">
<g id="Group 10441">
<g id="Ellipse 210" filter="url(#filter0_b_2016_161)">
<circle cx="21.4675" cy="20.969" r="20.5325" fill="white" fill-opacity="0.15"/>
</g>
<g id="Group 9949">
<g id="Group 9948">
<g id="Group 9933">
<path id="Vector" d="M24.8408 31.0352C25.5257 31.0353 26.1961 30.8385 26.7722 30.4681C27.3482 30.0977 27.8056 29.5695 28.0897 28.9463C28.3739 28.3232 28.4728 27.6315 28.3747 26.9537C28.2766 26.2759 27.9856 25.6407 27.5365 25.1237C27.0873 24.6067 26.499 24.2298 25.8415 24.0379C25.1841 23.846 24.4854 23.8473 23.8287 24.0416C23.172 24.2358 22.585 24.6149 22.1377 25.1335C21.6904 25.6521 21.4018 26.2885 21.3062 26.9666C19.2006 25.8766 17.4949 24.1471 16.4341 22.0268C16.9352 21.9798 17.4207 21.8273 17.8586 21.5793C18.2966 21.3313 18.677 20.9934 18.975 20.5877C19.4947 19.9335 19.7576 19.1121 19.7146 18.2777C19.6715 17.4433 19.3253 16.6533 18.7411 16.0561C18.6041 15.9107 18.454 15.7784 18.2926 15.6608C17.7655 15.2488 17.1333 14.9931 16.4679 14.923C15.8025 14.8529 15.1309 14.9711 14.5295 15.2642C13.9281 15.5574 13.4211 16.0136 13.0665 16.5809C12.7118 17.1482 12.5237 17.8037 12.5236 18.4728C12.5235 18.5951 12.53 18.7173 12.5429 18.839C12.5038 19.1988 12.5262 19.5627 12.6091 19.915C12.7333 20.4361 12.8995 20.9475 13.0721 21.4557C13.4046 22.5122 13.8847 23.5164 14.4982 24.4386C15.098 25.2881 15.7694 26.0848 16.5051 26.8198C17.4068 27.7597 18.4187 28.5874 19.5187 29.2849C20.6754 29.9931 21.9499 30.4141 23.2405 30.7997C23.5247 30.8826 23.8166 30.9367 24.1116 30.961C24.3516 31.0104 24.5959 31.0352 24.8408 31.0352Z" fill="white"/>
</g>
</g>
<path id="Vector 196" d="M22.2742 17.9917C23.041 18.1221 24.7126 18.866 25.2646 20.7982" stroke="white" stroke-width="1.7" stroke-linecap="round"/>
<path id="Vector 197" d="M22.5225 14.9033C24.1941 15.0031 27.7121 16.2745 28.4114 20.5623" stroke="white" stroke-width="1.7" stroke-linecap="round"/>
</g>
</g>
<defs>
<filter id="filter0_b_2016_161" x="-6.06494" y="-6.56348" width="55.0649" height="55.0649" filterUnits="userSpaceOnUse" color-interpolation-filters="sRGB">
<feFlood flood-opacity="0" result="BackgroundImageFix"/>
<feGaussianBlur in="BackgroundImageFix" stdDeviation="3.5"/>
<feComposite in2="SourceAlpha" operator="in" result="effect1_backgroundBlur_2016_161"/>
<feBlend mode="normal" in="SourceGraphic" in2="effect1_backgroundBlur_2016_161" result="shape"/>
</filter>
</defs>
</svg>
