<svg width="232" height="77" viewBox="0 0 232 77" fill="none" xmlns="http://www.w3.org/2000/svg">
<g id="Group 10400">
<g id="Group">
<g id="Group_2">
<g id="Group_3">
<path id="Vector" d="M82.2016 66.7972V10.87C82.2016 6.21831 84.5275 4.87042 91.0118 4.38143V0.954285C83.0563 1.32421 75.4706 1.32421 67.6384 0.954285L47.9344 54.5598L26.0279 0.954285C18.0723 1.32421 9.75106 1.32421 1.79549 0.954285V4.38143C8.40317 4.87042 12.0769 7.31959 12.0769 12.2137V66.7972C12.0769 71.9379 7.79087 72.9158 0.205231 73.5281V76.9553C9.62776 76.5896 19.4202 76.5896 29.2084 76.9553V73.5281C21.4995 72.9158 16.971 71.9379 16.971 66.7972V13.4383L42.7937 76.9553H44.3839L67.8807 13.4383V66.7972C67.8807 71.9379 65.5549 73.0392 58.9472 73.5281V76.9553C69.471 76.5896 80.6113 76.5896 91.1351 76.9553V73.5281C84.5275 73.0392 82.2016 71.9379 82.2016 66.7972Z" fill="#FBFAF9"/>
</g>
</g>
</g>
<g id="Group_4">
<g id="Group_5">
<g id="Group_6">
<path id="Vector_2" d="M131.642 67.4095V10.5001C131.642 6.21831 133.968 4.87042 140.452 4.38143V0.954285C129.928 1.32421 118.792 1.32421 108.269 0.954285V4.38143C114.876 4.87042 117.202 6.21831 117.202 10.5001V67.4095C117.202 71.6913 114.876 73.0392 108.269 73.5281V76.9553C118.792 76.5896 129.928 76.5896 140.452 76.9553V73.5281C133.968 73.0392 131.642 71.6913 131.642 67.4095Z" fill="#FBFAF9"/>
</g>
</g>
</g>
<g id="Group_7">
<g id="Group_8">
<g id="Group_9">
<path id="Vector_3" d="M165.929 17.6353C167.039 17.6353 167.91 17.9032 168.548 18.4347C169.182 18.9577 169.501 19.6848 169.501 20.6117C169.501 21.5429 169.182 22.2743 168.548 22.8058C167.91 23.3288 167.039 23.5882 165.929 23.5882H163.599V26.3435H162.663V17.6353H165.929ZM165.912 22.7888C166.771 22.7888 167.43 22.6017 167.885 22.2275C168.336 21.8448 168.565 21.3048 168.565 20.6117C168.565 19.9102 168.336 19.3701 167.885 18.996C167.43 18.6133 166.771 18.4177 165.912 18.4177H163.599V22.7888H165.912Z" fill="#FBFAF9"/>
</g>
</g>
</g>
<g id="Group_10">
<g id="Group_11">
<g id="Group_12">
<path id="Vector_4" d="M184.402 26.3435L182.412 23.5371C182.182 23.5627 181.953 23.5712 181.714 23.5712H179.384V26.3435H178.449V17.6353H181.714C182.824 17.6353 183.696 17.9032 184.334 18.4347C184.967 18.9577 185.286 19.6848 185.286 20.6117C185.286 21.2921 185.108 21.8703 184.759 22.3466C184.419 22.8143 183.925 23.146 183.279 23.3501L185.422 26.3435H184.402ZM181.697 22.7888C182.556 22.7888 183.215 22.6017 183.67 22.2275C184.121 21.8448 184.351 21.3048 184.351 20.6117C184.351 19.9102 184.121 19.3701 183.67 18.996C183.215 18.6133 182.556 18.4177 181.697 18.4177H179.384V22.7888H181.697Z" fill="#FBFAF9"/>
</g>
</g>
</g>
<g id="Group_13">
<g id="Group_14">
<g id="Group_15">
<path id="Vector_5" d="M194.296 17.6353H195.232V26.3435H194.296V17.6353Z" fill="#FBFAF9"/>
</g>
</g>
</g>
<g id="Group_16">
<g id="Group_17">
<g id="Group_18">
<path id="Vector_6" d="M212.2 17.6353V26.3435H211.435L205.839 19.2681V26.3435H204.904V17.6353H205.669L211.282 24.6937V17.6353H212.2Z" fill="#FBFAF9"/>
</g>
</g>
</g>
<g id="Group_19">
<g id="Group_20">
<g id="Group_21">
<path id="Vector_7" d="M223.572 18.4177H220.511V17.6353H227.552V18.4177H224.491V26.3435H223.572V18.4177Z" fill="#FBFAF9"/>
</g>
</g>
</g>
<g id="Group_22">
<g id="Group_23">
<g id="Group_24">
<path id="Vector_8" d="M199.238 44.6836L198.03 43.442C197.29 44.2244 196.321 44.6156 195.122 44.6156C194.552 44.6156 194.05 44.5263 193.608 44.3435C193.166 44.1521 192.817 43.8927 192.571 43.5611C192.32 43.2209 192.196 42.8382 192.196 42.4045C192.196 41.8858 192.358 41.4181 192.69 41.0099C193.017 40.5932 193.583 40.1552 194.39 39.7002C193.969 39.258 193.68 38.8923 193.523 38.5947C193.361 38.2885 193.285 37.9654 193.285 37.6252C193.285 37.0725 193.48 36.6217 193.88 36.2816C194.288 35.9414 194.824 35.7713 195.496 35.7713C196.117 35.7713 196.61 35.9244 196.976 36.2306C197.337 36.5367 197.52 36.9619 197.52 37.5062C197.52 37.9399 197.371 38.3311 197.078 38.6797C196.793 39.0199 196.295 39.3941 195.581 39.8023L197.979 42.2685C198.239 41.7922 198.43 41.231 198.557 40.5847L199.272 40.8058C199.11 41.5881 198.855 42.26 198.506 42.8127L199.748 44.1053L199.238 44.6836ZM195.496 36.4347C195.062 36.4347 194.722 36.5452 194.475 36.7578C194.237 36.9747 194.118 37.2596 194.118 37.6082C194.118 37.8718 194.178 38.1185 194.305 38.3566C194.441 38.5862 194.701 38.8966 195.088 39.292C195.721 38.9306 196.159 38.6245 196.397 38.3736C196.644 38.1142 196.772 37.8251 196.772 37.5062C196.772 37.1788 196.657 36.9194 196.431 36.7238C196.202 36.5325 195.891 36.4347 195.496 36.4347ZM195.173 43.8842C196.134 43.8842 196.912 43.5568 197.503 42.8978L194.884 40.2105C194.191 40.5974 193.714 40.9503 193.455 41.265C193.191 41.5839 193.064 41.9368 193.064 42.3195C193.064 42.7957 193.255 43.1784 193.642 43.459C194.025 43.7439 194.535 43.8842 195.173 43.8842Z" fill="#FBFAF9"/>
</g>
</g>
</g>
<g id="Group_25">
<g id="Group_26">
<g id="Group_27">
<path id="Vector_9" d="M171.729 54.0433V62.7515H170.844V55.7781L167.409 61.6459H166.984L163.548 55.8121V62.7515H162.663V54.0433H163.429L167.222 60.5064L170.963 54.0433H171.729Z" fill="#FBFAF9"/>
</g>
</g>
</g>
<g id="Group_28">
<g id="Group_29">
<g id="Group_30">
<path id="Vector_10" d="M187.573 61.9521V62.7515H181.399V54.0433H187.386V54.8257H182.334V57.9382H186.841V58.7205H182.334V61.9521H187.573Z" fill="#FBFAF9"/>
</g>
</g>
</g>
<g id="Group_31">
<g id="Group_32">
<g id="Group_33">
<path id="Vector_11" d="M196.574 54.0433H200.129C201.047 54.0433 201.855 54.2304 202.561 54.6046C203.275 54.9702 203.824 55.4805 204.211 56.1353C204.606 56.7944 204.806 57.547 204.806 58.3974C204.806 59.2393 204.606 59.9919 204.211 60.6595C203.824 61.3185 203.275 61.833 202.561 62.2072C201.855 62.5729 201.047 62.7515 200.129 62.7515H196.574V54.0433ZM200.078 61.9521C200.835 61.9521 201.498 61.8075 202.068 61.5099C202.646 61.2037 203.093 60.787 203.411 60.2513C203.726 59.707 203.888 59.0905 203.888 58.3974C203.888 57.6958 203.726 57.0792 203.411 56.5435C203.093 56.012 202.646 55.591 202.068 55.2849C201.498 54.9787 200.835 54.8257 200.078 54.8257H197.51V61.9521H200.078Z" fill="#FBFAF9"/>
</g>
</g>
</g>
<g id="Group_34">
<g id="Group_35">
<g id="Group_36">
<path id="Vector_12" d="M213.704 54.0433H214.639V62.7515H213.704V54.0433Z" fill="#FBFAF9"/>
</g>
</g>
</g>
<g id="Group_37">
<g id="Group_38">
<g id="Group_39">
<path id="Vector_13" d="M229.788 60.4214H224.923L223.886 62.7515H222.917L226.913 54.0433H227.815L231.795 62.7515H230.825L229.788 60.4214ZM229.448 59.673L227.356 54.9957L225.264 59.673H229.448Z" fill="#FBFAF9"/>
</g>
</g>
</g>
</g>
</svg>
