<svg width="82" height="73" viewBox="0 0 82 73" fill="none" xmlns="http://www.w3.org/2000/svg">
<g id="Frame" clip-path="url(#clip0_2033_628)">
<g id="Group">
<path id="Vector" d="M38.548 34.3926C40.4737 33.6416 42.301 33.1446 43.9312 32.272C50.332 28.8592 53.8552 21.4925 52.4985 14.6669C50.9557 6.96876 45.2989 1.31391 37.7821 0.916299C30.3091 0.529736 22.7813 0.496603 15.3083 0.938388C6.85047 1.4354 0.351212 9.03411 0.373093 17.5495C0.394978 25.9987 6.91612 33.3323 15.2754 34.1054C18.35 34.3926 21.4574 34.2048 24.5429 34.3374C25.2103 34.3705 26.0091 34.6798 26.4795 35.1436C29.018 37.5955 31.5017 40.1137 33.9417 42.654C34.8389 43.5928 35.8236 44.134 37.06 43.6259C38.3183 43.1068 38.559 41.9361 38.548 40.677C38.5261 38.5675 38.548 36.4359 38.548 34.3926ZM24.2912 17.5274C24.2803 16.2573 25.2979 15.1639 26.5561 15.1087C27.7925 15.0534 29.0289 16.2352 29.0508 17.4833C29.0727 18.7203 27.8472 19.9352 26.5999 19.902C25.3526 19.8799 24.3022 18.7976 24.2912 17.5274ZM14.7393 17.5385C14.7065 16.3677 15.8335 15.1749 17.0261 15.1087C18.3172 15.0313 19.466 16.1358 19.4879 17.4612C19.5098 18.7313 18.4922 19.8358 17.2449 19.902C16.0195 19.9573 14.7721 18.7976 14.7393 17.5385ZM33.8322 17.4612C33.8432 16.1579 34.8498 15.1197 36.1081 15.1087C37.3773 15.0866 38.5371 16.2683 38.5043 17.5495C38.4824 18.7865 37.3882 19.891 36.1628 19.902C34.8498 19.9131 33.8104 18.8307 33.8322 17.4612Z" fill="#E4B5BF"/>
<path id="Vector_2" d="M24.2912 17.5273C24.3021 18.7975 25.3525 19.8798 26.5998 19.9019C27.8362 19.924 29.0617 18.7201 29.0507 17.4831C29.0288 16.2351 27.7924 15.0533 26.556 15.1086C25.2978 15.1638 24.2802 16.2572 24.2912 17.5273Z" fill="#856068"/>
<path id="Vector_3" d="M14.7393 17.5384C14.7721 18.7865 16.0085 19.9572 17.2449 19.891C18.4923 19.8247 19.5098 18.7313 19.4879 17.4501C19.4661 16.1247 18.3172 15.0203 17.0261 15.0976C15.8335 15.1749 14.7174 16.3677 14.7393 17.5384Z" fill="#856068"/>
<path id="Vector_4" d="M33.8323 17.4612C33.8214 18.8307 34.8608 19.9242 36.1628 19.9021C37.3883 19.88 38.4824 18.7866 38.5043 17.5496C38.5371 16.2684 37.3773 15.0866 36.1081 15.1087C34.8389 15.1197 33.8432 16.1579 33.8323 17.4612Z" fill="#856068"/>
</g>
<g id="Group 10413">
<path id="Vector_5" d="M69.5672 11.6847C68.0682 11.6847 66.5692 11.6847 65.0702 11.6847C63.6478 11.6957 62.6959 12.3253 62.2363 13.739C60.7592 18.2563 59.2603 22.7735 57.7394 27.2687C57.3783 28.34 57.4877 29.2678 58.1333 30.2066C59.2274 31.797 60.234 33.4537 61.3501 35.022C61.8206 35.6957 61.8206 36.2038 61.4157 36.8996C57.5643 43.5264 52.378 48.7836 45.7803 52.6272C45.1129 53.0137 44.6424 52.9696 44.0297 52.5278C42.4213 51.3791 40.8238 50.2194 39.106 49.2696C38.3839 48.872 37.2897 48.6732 36.5238 48.9162C31.9721 50.3299 27.4752 51.9093 22.9563 53.4113C21.884 53.7648 21.0087 54.4274 20.9868 55.554C20.9321 59.1877 20.7242 62.8656 21.1181 66.4551C21.5777 70.5416 24.7836 72.7615 29.0398 72.6069C38.2416 72.2756 46.6885 69.5144 54.4132 64.5443C66.7005 56.6364 75.3224 45.8016 79.5786 31.6203C80.7822 27.589 81.373 23.4252 81.373 19.2061C81.373 14.9097 78.3422 11.7951 74.0641 11.6957C72.5651 11.6626 71.0661 11.6847 69.5672 11.6847Z" fill="#A3CBD7"/>
<path id="Vector 410" d="M78.5612 23.0542C77.2492 29.1824 72.7266 43.242 65.1322 50.4552" stroke="white" stroke-width="0.7" stroke-linecap="round"/>
<path id="Vector 409" d="M23.9281 55.7681C23.4273 59.5808 23.4378 67.5902 27.4866 69.1259" stroke="white" stroke-width="0.7" stroke-linecap="round"/>
</g>
</g>
<defs>
<clipPath id="clip0_2033_628">
<rect width="81" height="72" fill="white" transform="matrix(-1 0 0 1 81.3729 0.618164)"/>
</clipPath>
</defs>
</svg>
