<svg width="65" height="64" viewBox="0 0 65 64" fill="none" xmlns="http://www.w3.org/2000/svg">
<g id="Frame" clip-path="url(#clip0_2035_64)">
<path id="Vector" d="M15.4636 25.3845H50.0807C51.1127 25.3845 51.9496 24.5477 51.9496 23.5156V3.29692C51.9496 2.26486 51.1127 1.42804 50.0807 1.42804H15.4636C14.4315 1.42804 13.5947 2.26486 13.5947 3.29692V23.5156C13.5947 24.5477 14.4315 25.3845 15.4636 25.3845Z" fill="#FFE89C"/>
<path id="Vector_2" d="M50.0806 1.42804C51.1127 1.42804 51.9495 2.26486 51.9495 3.29692V23.5156C51.9495 24.5477 51.1127 25.3845 50.0806 25.3845H32.7711V1.42804H50.0806Z" fill="#DDC56F"/>
<path id="Vector_3" d="M7.22169 54.6829H58.3202C61.7831 54.6829 64.6005 51.8655 64.6005 48.4026V27.927C64.6005 24.4637 61.7831 21.6463 58.3202 21.6463H7.22169C3.7593 21.6463 0.941895 24.4637 0.941895 27.927V48.4026C0.941895 51.8655 3.7593 54.6829 7.22169 54.6829Z" fill="#696174"/>
<path id="Vector_4" d="M64.6005 31.6031V48.4027C64.6005 51.8655 61.7831 54.6829 58.3202 54.6829H7.22169C3.7593 54.6829 0.941895 51.8655 0.941895 48.4027V31.6031H64.6005Z" fill="#E4B5BF"/>
<path id="Vector_5" d="M64.6004 31.6031V48.4027C64.6004 51.8655 61.783 54.6829 58.3201 54.6829H32.7711V31.6031H64.6004Z" fill="#E4B5BF"/>
<path id="Vector_6" d="M0.941895 27.927C0.941895 24.4637 3.7593 21.6463 7.22169 21.6463H58.3202C61.7831 21.6463 64.6005 24.4637 64.6005 27.927V31.6031H0.941895V27.927Z" fill="#D0A6AF"/>
<path id="Vector_7" d="M32.7711 21.6463H58.3201C61.783 21.6463 64.6004 24.4637 64.6004 27.927V31.6031H32.7711V21.6463Z" fill="#B9949C"/>
<path id="Vector_8" d="M16.2285 62.513H49.3137C50.3458 62.513 51.1826 61.6762 51.1826 60.6441V39.1388C51.1826 38.1068 50.3458 37.27 49.3137 37.27H16.2285C15.1964 37.27 14.3596 38.1068 14.3596 39.1388V60.6441C14.3596 61.6762 15.1964 62.513 16.2285 62.513Z" fill="#FFE89C"/>
<path id="Vector_9" d="M51.1826 39.1388V60.6441C51.1826 61.6762 50.3458 62.513 49.3137 62.513H32.7711V37.27H49.3137C50.3458 37.27 51.1826 38.1068 51.1826 39.1388Z" fill="#DDC56F"/>
<path id="Vector_10" d="M24.2014 55.41H41.3409C42.373 55.41 43.2098 54.5731 43.2098 53.5406C43.2098 52.5085 42.373 51.6717 41.3409 51.6717H24.2014C23.1693 51.6717 22.3325 52.5085 22.3325 53.5406C22.3325 54.5731 23.1693 55.41 24.2014 55.41Z" fill="#C6C0AC"/>
<path id="Vector_11" d="M41.3409 51.6717C42.3729 51.6717 43.2098 52.5085 43.2098 53.5406C43.2098 54.5727 42.3729 55.4095 41.3409 55.4095H32.7711V51.6717H41.3409Z" fill="#A59E85"/>
<path id="Vector_12" d="M24.2014 47.8092H41.3409C42.373 47.8092 43.2098 46.9723 43.2098 45.9403C43.2098 44.9077 42.373 44.0709 41.3409 44.0709H24.2014C23.1693 44.0709 22.3325 44.9077 22.3325 45.9403C22.3325 46.9723 23.1693 47.8092 24.2014 47.8092Z" fill="#C6C0AC"/>
<path id="Vector_13" d="M41.3409 44.0709C42.3729 44.0709 43.2098 44.9077 43.2098 45.9398C43.2098 46.9723 42.3729 47.8092 41.3409 47.8092H32.7711V44.0709H41.3409Z" fill="#A59E85"/>
</g>
<defs>
<clipPath id="clip0_2035_64">
<rect width="63.6586" height="63.6586" fill="white" transform="translate(0.941895 0.184692)"/>
</clipPath>
</defs>
</svg>
