<svg width="66" height="60" viewBox="0 0 66 60" fill="none" xmlns="http://www.w3.org/2000/svg">
<g id="time_eywouoifo45h 1" clip-path="url(#clip0_2035_78)">
<path id="Vector" d="M62.2512 30.1377C62.2512 46.2268 49.2837 59.2698 33.287 59.2698C17.2909 59.2698 4.32288 46.2268 4.32288 30.1377C4.32288 14.0491 17.2909 1.00616 33.287 1.00616C49.2837 1.00616 62.2512 14.0491 62.2512 30.1377Z" fill="#79BCCF"/>
<path id="Vector_2" d="M55.3066 30.1377C55.3066 42.3693 45.4483 52.2845 33.287 52.2845C21.1262 52.2845 11.2675 42.3693 11.2675 30.1377C11.2675 17.9067 21.1262 7.99091 33.287 7.99091C45.4483 7.99091 55.3066 17.9067 55.3066 30.1377Z" fill="#F0F9FB"/>
<g id="Group">
<path id="Vector_3" d="M33.2871 6.93698C32.7083 6.93698 32.2386 7.40878 32.2386 7.99146V10.1884C32.2386 10.7711 32.7083 11.2429 33.2871 11.2429C33.8664 11.2429 34.3355 10.7711 34.3355 10.1884V7.99146C34.3355 7.40878 33.8664 6.93698 33.2871 6.93698Z" fill="#79BCCF"/>
<path id="Vector_4" d="M33.2871 49.0331C32.7083 49.0331 32.2386 49.5054 32.2386 50.0876V52.2851C32.2386 52.8672 32.7083 53.3395 33.2871 53.3395C33.8664 53.3395 34.3355 52.8672 34.3355 52.2851V50.0876C34.3355 49.5054 33.8664 49.0331 33.2871 49.0331Z" fill="#79BCCF"/>
<path id="Vector_5" d="M22.4615 13.3881C22.7509 13.8924 23.3922 14.0651 23.8936 13.7741C24.3951 13.483 24.5673 12.8379 24.2774 12.3336L23.1855 10.431C22.8961 9.92664 22.2547 9.75391 21.7533 10.045C21.2519 10.3361 21.0796 10.9811 21.3696 11.4854L22.4615 13.3881Z" fill="#79BCCF"/>
<path id="Vector_6" d="M44.1128 46.8873C43.8234 46.383 43.182 46.2108 42.6806 46.5019C42.1792 46.793 42.0074 47.438 42.2968 47.9424L43.3887 49.8445C43.6781 50.3488 44.3195 50.5221 44.8214 50.2304C45.3228 49.9394 45.4946 49.2943 45.2046 48.79L44.1128 46.8873Z" fill="#79BCCF"/>
<path id="Vector_7" d="M13.6935 19.9778L15.5852 21.0765C16.0872 21.3676 16.728 21.1943 17.0174 20.6906C17.3068 20.1862 17.1351 19.5412 16.6337 19.2501L14.7419 18.1514C14.2405 17.8603 13.5992 18.033 13.3098 18.5373C13.0204 19.0417 13.1921 19.6867 13.6935 19.9778Z" fill="#79BCCF"/>
<path id="Vector_8" d="M52.8806 40.2982L50.9889 39.1994C50.4875 38.9084 49.8461 39.0811 49.5567 39.5854C49.2673 40.0897 49.439 40.7348 49.9405 41.0259L51.8322 42.1246C52.3341 42.4157 52.975 42.2429 53.2644 41.7386C53.5543 41.2343 53.3826 40.5892 52.8806 40.2982Z" fill="#79BCCF"/>
<path id="Vector_9" d="M14.5008 30.1377C14.5008 29.5556 14.0312 29.0833 13.4518 29.0833H11.2675C10.6887 29.0833 10.2191 29.5556 10.2191 30.1377C10.2191 30.7204 10.6887 31.1922 11.2675 31.1922H13.4518C14.0312 31.1922 14.5008 30.7204 14.5008 30.1377Z" fill="#79BCCF"/>
<path id="Vector_10" d="M55.3066 29.0833H53.1223C52.543 29.0833 52.0734 29.5556 52.0734 30.1377C52.0734 30.7204 52.543 31.1922 53.1223 31.1922H55.3066C55.8854 31.1922 56.355 30.7204 56.355 30.1377C56.355 29.5556 55.886 29.0833 55.3066 29.0833Z" fill="#79BCCF"/>
<path id="Vector_11" d="M15.5852 39.1994L13.6935 40.2982C13.1921 40.5892 13.0204 41.2343 13.3098 41.7386C13.5038 42.0771 13.8562 42.2659 14.2188 42.2659C14.5808 42.2659 14.567 42.2264 16.6337 41.0259C17.1351 40.7348 17.3068 40.0897 17.0174 39.5854C16.728 39.0811 16.0867 38.9084 15.5852 39.1994Z" fill="#79BCCF"/>
<path id="Vector_12" d="M50.9889 21.0765L52.8806 19.9778C53.382 19.6867 53.5543 19.0417 53.2644 18.5373C52.975 18.033 52.3336 17.8603 51.8322 18.1514L49.9405 19.2501C49.439 19.5412 49.2673 20.1862 49.5567 20.6906C49.8461 21.1949 50.4875 21.3676 50.9889 21.0765Z" fill="#79BCCF"/>
<path id="Vector_13" d="M23.8936 46.5019C23.3922 46.2103 22.7509 46.3831 22.4615 46.8874L21.3696 48.7906C21.0796 49.2949 21.2519 49.9394 21.7533 50.231C22.2547 50.5221 22.8961 50.3494 23.1855 49.845L24.2774 47.9424C24.5673 47.4381 24.3956 46.793 23.8936 46.5019Z" fill="#79BCCF"/>
<path id="Vector_14" d="M42.6806 13.7741C43.1825 14.0657 43.8234 13.8924 44.1128 13.3881L45.2046 11.4854C45.4946 10.9811 45.3223 10.3361 44.8214 10.045C44.3195 9.75391 43.6781 9.92664 43.3887 10.431L42.2968 12.3336C42.0074 12.8385 42.1792 13.483 42.6806 13.7741Z" fill="#79BCCF"/>
</g>
<path id="Vector_15" d="M33.2869 28.8033C32.7081 28.8033 32.2385 28.331 32.2385 27.7489V14.0806C32.2385 13.4979 32.7081 13.0261 33.2869 13.0261C33.8663 13.0261 34.3354 13.4979 34.3354 14.0806V27.7489C34.3354 28.331 33.8663 28.8033 33.2869 28.8033Z" fill="#B8919A"/>
<path id="Vector_16" d="M46.158 28.1108H35.6945C36.101 28.6829 36.3422 29.3812 36.3422 30.1382C36.3422 30.8947 36.101 31.5931 35.6945 32.1651H46.158C47.2711 32.1651 48.1738 31.2578 48.1738 30.1382C48.1738 29.0187 47.2711 28.1108 46.158 28.1108Z" fill="#B8919A"/>
<path id="Vector_17" d="M39.9989 32.1651C40.371 31.5787 40.5899 30.8851 40.5899 30.1382C40.5899 29.3908 40.3705 28.6973 39.9989 28.1108H35.6945C36.101 28.6829 36.3422 29.3818 36.3422 30.1382C36.3422 30.8947 36.101 31.5931 35.6945 32.1651H39.9989Z" fill="#B8919A"/>
<path id="Vector_18" d="M36.7619 30.1377C36.7619 32.0681 35.2062 33.6327 33.2869 33.6327C31.3682 33.6327 29.8125 32.0681 29.8125 30.1377C29.8125 28.2079 31.3682 26.6432 33.2869 26.6432C35.2062 26.6432 36.7619 28.2079 36.7619 30.1377Z" fill="#79BCCF"/>
<path id="Vector_19" d="M34.0062 30.1377C34.0062 29 34.5468 27.9898 35.3838 27.3517C34.8013 26.9071 34.0751 26.6432 33.2869 26.6432C31.3682 26.6432 29.8125 28.2079 29.8125 30.1377C29.8125 32.0681 31.3682 33.6327 33.2869 33.6327C34.0751 33.6327 34.8013 33.3683 35.3838 32.9242C34.5468 32.2861 34.0062 31.2759 34.0062 30.1377Z" fill="#79BCCF"/>
<path id="Vector_20" d="M33.2871 53.339C20.5677 53.339 10.2191 42.9312 10.2191 30.1377C10.2191 17.3448 20.5677 6.93643 33.2871 6.93643C46.0071 6.93643 56.3551 17.3448 56.3551 30.1377C56.3551 42.9312 46.0071 53.339 33.2871 53.339ZM33.2871 9.04593C21.7237 9.04593 12.316 18.5075 12.316 30.1377C12.316 41.7685 21.7237 51.23 33.2871 51.23C44.8505 51.23 54.2582 41.7685 54.2582 30.1377C54.2582 18.5075 44.8505 9.04593 33.2871 9.04593Z" fill="#B8919A"/>
</g>
<defs>
<clipPath id="clip0_2035_78">
<rect width="66" height="59" fill="white" transform="translate(0 0.175781)"/>
</clipPath>
</defs>
</svg>
