<svg width="72" height="72" viewBox="0 0 72 72" fill="none" xmlns="http://www.w3.org/2000/svg">
<g id="Frame">
<g id="Group">
<g id="Group_2">
<path id="Vector" d="M52.5893 8.54047V62.848C52.5893 64.3232 52.0033 65.7379 50.9601 66.7811C49.917 67.8242 48.5022 68.4102 47.027 68.4102H10.878C9.40284 68.4102 7.98806 67.8242 6.94494 66.7811C5.90182 65.7379 5.3158 64.3232 5.3158 62.848V17.0802L19.712 2.97823H47.027C48.5022 2.97823 49.917 3.56425 50.9601 4.60738C52.0033 5.6505 52.5893 7.06528 52.5893 8.54047Z" fill="#EFDBE0"/>
<path id="Vector_2" d="M19.7081 2.97823V17.0791L5.3158 17.0802L19.7081 2.97823Z" fill="#DDAAB5"/>
</g>
<g id="Group_3">
<path id="Vector_3" d="M35.3252 25.5153H12.5117C12.2536 25.5153 12.006 25.4128 11.8234 25.2302C11.6409 25.0477 11.5383 24.8001 11.5383 24.5419C11.5383 24.2838 11.6409 24.0362 11.8234 23.8536C12.006 23.6711 12.2536 23.5685 12.5117 23.5685H35.3252C35.5834 23.5685 35.831 23.6711 36.0135 23.8536C36.1961 24.0362 36.2986 24.2838 36.2986 24.5419C36.2986 24.8001 36.1961 25.0477 36.0135 25.2302C35.831 25.4128 35.5834 25.5153 35.3252 25.5153Z" fill="white"/>
<path id="Vector_4" d="M35.3252 32.7963H12.5117C12.2536 32.7963 12.006 32.6938 11.8234 32.5112C11.6409 32.3287 11.5383 32.0811 11.5383 31.8229C11.5383 31.5648 11.6409 31.3172 11.8234 31.1346C12.006 30.9521 12.2536 30.8495 12.5117 30.8495H35.3252C35.5834 30.8495 35.831 30.9521 36.0135 31.1346C36.1961 31.3172 36.2986 31.5648 36.2986 31.8229C36.2986 32.0811 36.1961 32.3287 36.0135 32.5112C35.831 32.6938 35.5834 32.7963 35.3252 32.7963Z" fill="white"/>
<path id="Vector_5" d="M30.6213 40.0778H12.5117C12.2536 40.0778 12.006 39.9753 11.8234 39.7927C11.6409 39.6102 11.5383 39.3626 11.5383 39.1044C11.5383 38.8463 11.6409 38.5987 11.8234 38.4161C12.006 38.2336 12.2536 38.131 12.5117 38.131H30.6213C30.8794 38.131 31.127 38.2336 31.3096 38.4161C31.4921 38.5987 31.5947 38.8463 31.5947 39.1044C31.5947 39.3626 31.4921 39.6102 31.3096 39.7927C31.127 39.9753 30.8794 40.0778 30.6213 40.0778Z" fill="white"/>
<path id="Vector_6" d="M30.6213 47.3594H12.5117C12.2536 47.3594 12.006 47.2568 11.8234 47.0742C11.6409 46.8917 11.5383 46.6441 11.5383 46.386C11.5383 46.1278 11.6409 45.8802 11.8234 45.6977C12.006 45.5151 12.2536 45.4126 12.5117 45.4126H30.6213C30.8794 45.4126 31.127 45.5151 31.3096 45.6977C31.4921 45.8802 31.5947 46.1278 31.5947 46.386C31.5947 46.6441 31.4921 46.8917 31.3096 47.0742C31.127 47.2568 30.8794 47.3594 30.6213 47.3594Z" fill="white"/>
<path id="Vector_7" d="M30.6213 54.6409H12.5117C12.2536 54.6409 12.006 54.5383 11.8234 54.3558C11.6409 54.1732 11.5383 53.9257 11.5383 53.6675C11.5383 53.4093 11.6409 53.1618 11.8234 52.9792C12.006 52.7967 12.2536 52.6941 12.5117 52.6941H30.6213C30.8794 52.6941 31.127 52.7967 31.3096 52.9792C31.4921 53.1618 31.5947 53.4093 31.5947 53.6675C31.5947 53.9257 31.4921 54.1732 31.3096 54.3558C31.127 54.5383 30.8794 54.6409 30.6213 54.6409Z" fill="white"/>
<path id="Vector_8" d="M30.6213 61.9218H12.5117C12.2536 61.9218 12.006 61.8193 11.8234 61.6367C11.6409 61.4542 11.5383 61.2066 11.5383 60.9485C11.5383 60.6903 11.6409 60.4427 11.8234 60.2602C12.006 60.0776 12.2536 59.9751 12.5117 59.9751H30.6213C30.8794 59.9751 31.127 60.0776 31.3096 60.2602C31.4921 60.4427 31.5947 60.6903 31.5947 60.9485C31.5947 61.2066 31.4921 61.4542 31.3096 61.6367C31.127 61.8193 30.8794 61.9218 30.6213 61.9218Z" fill="white"/>
</g>
<g id="Group_4">
<g id="Group_5">
<path id="Vector_9" d="M65.8809 59.4922L59.7958 54.8194L58.5559 62.3907L51.4902 44.5342L58.8151 41.6357L65.8809 59.4922Z" fill="#79BCCF"/>
<path id="Vector_10" d="M39.3127 59.4922L45.3973 54.8194L46.6371 62.3907L53.7028 44.5342L46.3785 41.6358L39.3127 59.4922Z" fill="#79BCCF"/>
</g>
<path id="Vector_11" d="M54.3093 27.8514C54.59 28.2036 54.9724 28.4606 55.4045 28.5875C55.8366 28.7144 56.2973 28.705 56.7238 28.5606C57.0355 28.455 57.367 28.421 57.6936 28.4612C58.0202 28.5013 58.3336 28.6145 58.6105 28.7924C58.8873 28.9704 59.1205 29.2084 59.2927 29.4888C59.4649 29.7693 59.5716 30.0849 59.6051 30.4123C59.651 30.8603 59.834 31.2833 60.129 31.6236C60.424 31.9639 60.8167 32.205 61.2537 32.314C61.5729 32.3938 61.87 32.5444 62.1229 32.7548C62.3759 32.9651 62.5782 33.2297 62.7149 33.529C62.8515 33.8282 62.919 34.1545 62.9122 34.4834C62.9055 34.8123 62.8248 35.1355 62.676 35.4289C62.4726 35.8305 62.3979 36.285 62.462 36.7305C62.5261 37.1761 62.7259 37.5911 63.0342 37.9191C63.2596 38.1588 63.4282 38.4462 63.5274 38.7599C63.6265 39.0737 63.6537 39.4058 63.6069 39.7315C63.56 40.0572 63.4404 40.3682 63.257 40.6413C63.0735 40.9145 62.8308 41.1428 62.5469 41.3093C62.1586 41.5371 61.8498 41.8791 61.6627 42.2886C61.4756 42.6982 61.4192 43.1554 61.5012 43.5981C61.5614 43.9217 61.548 44.2546 61.4618 44.5722C61.3756 44.8899 61.2189 45.184 61.0034 45.4327C60.788 45.6814 60.5192 45.8784 60.2171 46.009C59.915 46.1395 59.5874 46.2003 59.2585 46.1868C58.8086 46.1684 58.3639 46.2892 57.9851 46.5326C57.6063 46.7761 57.3117 47.1304 57.1416 47.5473C57.0172 47.852 56.8258 48.1247 56.5815 48.3452C56.3373 48.5657 56.0465 48.7284 55.7308 48.8211C55.4151 48.9138 55.0826 48.9342 54.7579 48.8807C54.4332 48.8273 54.1247 48.7014 53.8554 48.5124C53.4867 48.2536 53.0473 48.1148 52.5969 48.1148C52.1465 48.1148 51.7071 48.2536 51.3385 48.5124C51.0691 48.7014 50.7607 48.8273 50.436 48.8807C50.1113 48.9342 49.7787 48.9138 49.463 48.8211C49.1473 48.7284 48.8565 48.5657 48.6123 48.3452C48.3681 48.1247 48.1767 47.852 48.0523 47.5473C47.8821 47.1304 47.5876 46.7761 47.2087 46.5326C46.8299 46.2892 46.3852 46.1684 45.9353 46.1868C45.6065 46.2003 45.2788 46.1395 44.9767 46.0089C44.6746 45.8784 44.4058 45.6814 44.1903 45.4327C43.9747 45.184 43.818 44.8899 43.7318 44.5723C43.6455 44.2547 43.6319 43.9217 43.6921 43.5981C43.7736 43.1559 43.717 42.6992 43.53 42.2903C43.3431 41.8813 43.0347 41.5397 42.6469 41.3121C42.3628 41.1454 42.1199 40.9169 41.9363 40.6434C41.7527 40.3699 41.6331 40.0586 41.5865 39.7325C41.5399 39.4064 41.5674 39.074 41.667 38.7601C41.7667 38.4461 41.9358 38.1586 42.1619 37.9191C42.4705 37.591 42.6704 37.1758 42.7345 36.73C42.7986 36.2842 42.7238 35.8295 42.5201 35.4278C42.3713 35.1343 42.2905 34.8112 42.2838 34.4823C42.277 34.1533 42.3444 33.8271 42.481 33.5278C42.6176 33.2285 42.8198 32.9638 43.0727 32.7534C43.3256 32.543 43.6227 32.3922 43.9418 32.3124C44.3784 32.2029 44.7708 31.9615 45.0654 31.6212C45.36 31.2808 45.5425 30.8579 45.5882 30.4101C45.6217 30.0827 45.7286 29.7671 45.9008 29.4868C46.073 29.2064 46.3062 28.9684 46.583 28.7905C46.8598 28.6126 47.1732 28.4994 47.4997 28.4592C47.8263 28.419 48.1578 28.4529 48.4695 28.5584C48.8959 28.703 49.3565 28.7127 49.7886 28.5862C50.2208 28.4597 50.6035 28.2032 50.8846 27.8514C51.0897 27.5941 51.3502 27.3864 51.6466 27.2436C51.9431 27.1008 52.2679 27.0266 52.5969 27.0266C52.926 27.0266 53.2508 27.1008 53.5472 27.2436C53.8437 27.3864 54.1041 27.5941 54.3093 27.8514Z" fill="#DDC56A"/>
<path id="Vector_12" d="M52.5964 43.369C55.4798 43.369 57.8172 41.0316 57.8172 38.1483C57.8172 35.2649 55.4798 32.9275 52.5964 32.9275C49.7131 32.9275 47.3757 35.2649 47.3757 38.1483C47.3757 41.0316 49.7131 43.369 52.5964 43.369Z" fill="#FFDC64"/>
</g>
</g>
</g>
</svg>
