<svg width="92" height="93" viewBox="0 0 92 93" fill="none" xmlns="http://www.w3.org/2000/svg">
<g id="Group 632303">
<circle id="Ellipse 221" cx="46" cy="46.4189" r="46" fill="white"/>
<circle id="Ellipse 222" cx="45.1266" cy="46.4189" r="29.0375" fill="#FBF8ED"/>
<g id="Group 632302">
<path id="Vector 260" d="M17.5296 65.9646V69.3706C44.7013 60.1656 46.0006 38.9563 43.2537 29.5024C42.0765 25.5214 37.4113 17.5244 28.1681 17.3847C18.9248 17.2449 15.7202 21.5112 14.4558 28.0613C14.8918 45.5632 25.8863 44.3129 31.1983 41.7292C34.0061 38.8122 34.5482 41.4308 34.4683 43.1047C34.2939 56.4669 23.1032 63.9122 17.5296 65.9646Z" fill="#EEE2BC"/>
<path id="Vector 261" d="M50.8263 65.9645V69.3705C77.9979 60.1654 79.2972 38.9562 76.5504 29.5022C75.3732 25.5212 70.7079 17.5243 61.4647 17.3846C52.2215 17.2448 49.0168 21.5111 47.7524 28.0612C48.1884 45.5631 59.183 44.3127 64.4949 41.7291C67.3028 38.8121 67.8449 41.4307 67.7649 43.1046C67.5905 56.4668 56.3998 63.9121 50.8263 65.9645Z" fill="#EEE2BC"/>
</g>
</g>
</svg>
