<svg width="28" height="40" viewBox="0 0 28 40" fill="none" xmlns="http://www.w3.org/2000/svg">
<g id="Frame" clip-path="url(#clip0_2002_190)">
<g id="Group">
<path id="Vector" d="M0 19.9785C0 16.6846 0 13.3906 0 10.0967C0.0143215 4.58289 4.35374 0.143216 9.86753 0.0429656C12.4884 1.04867e-06 15.1235 1.04867e-06 17.7444 0.0429656C23.2581 0.143216 27.6262 4.61153 27.6405 10.111C27.6549 16.7275 27.6549 23.3298 27.6405 29.9463C27.6262 35.4601 23.2438 39.9284 17.7444 39.9857C15.0233 40.0143 12.3022 40.0143 9.5811 39.9714C4.96957 39.8997 0.787684 36.1905 0.157537 31.6362C0.0716076 30.9774 0.0143215 30.3043 0.0143215 29.6455C0 26.4232 0 23.2009 0 19.9785ZM26.237 20.0644C26.2227 16.5557 26.28 13.0469 26.2084 9.53813C26.1225 5.22736 22.2556 1.4608 17.9592 1.43215C15.1951 1.41783 12.4168 1.41783 9.6527 1.44647C9.03688 1.44647 8.42105 1.54672 7.83387 1.70426C3.82385 2.80702 1.34622 6.14393 1.3319 10.3974C1.31758 16.8135 1.31758 23.2438 1.3319 29.6599C1.3319 30.3473 1.38919 31.0491 1.5324 31.7222C2.4633 35.9327 5.87182 38.6538 10.2112 38.6681C12.5743 38.6824 14.9373 38.6824 17.3004 38.6681C22.4848 38.6538 26.2084 34.9302 26.2227 29.7315C26.237 26.5091 26.237 23.2868 26.237 20.0644Z" fill="#AEB0AF"/>
<path id="Vector_2" d="M17.5581 11.5C17.4865 12.5884 17.5438 13.7055 17.3147 14.7653C16.9423 16.5411 15.1808 17.6869 13.4049 17.472C11.6004 17.2715 10.1969 15.7678 10.1682 13.9633C10.1396 12.302 10.1253 10.6263 10.1682 8.96505C10.2112 7.00301 11.9011 5.44196 13.8632 5.4706C15.7966 5.49925 17.4579 7.1319 17.4865 9.0653C17.5008 9.88163 17.4865 10.6836 17.4865 11.5C17.5152 11.5 17.5295 11.5 17.5581 11.5ZM11.4715 11.5C11.4715 12.2447 11.4572 12.9751 11.4715 13.7198C11.5145 15.0803 12.4597 16.0685 13.72 16.0972C15.0232 16.1401 16.0114 15.2522 16.083 13.8487C16.1546 12.2733 16.1546 10.698 16.083 9.13691C16.0401 7.70476 15.0662 6.84547 13.6913 6.87411C12.4167 6.91708 11.5001 7.90526 11.4715 9.28013C11.4572 10.0248 11.4715 10.7696 11.4715 11.5Z" fill="#AEB0AF"/>
<path id="Vector_3" d="M13.8203 33.2548C15.009 32.2093 16.169 31.2068 17.3147 30.2043C17.7014 29.8749 18.1024 29.5455 18.5321 30.0611C18.9331 30.548 18.6037 30.9204 18.2027 31.2641C16.9567 32.3382 15.7107 33.4123 14.4934 34.5151C14.0351 34.9161 13.6484 34.9734 13.1758 34.558C11.9012 33.4123 10.5836 32.2952 9.32334 31.1352C9.12284 30.949 8.93666 30.548 8.97962 30.2902C9.06555 29.746 9.66705 29.6314 10.154 30.0611C11.0992 30.8631 12.0301 31.6937 12.961 32.5101C13.2188 32.7392 13.4909 32.9683 13.8203 33.2548Z" fill="#AEB0AF"/>
<path id="Vector_4" d="M13.7917 26.4805C15.009 25.4207 16.1834 24.4038 17.3434 23.387C17.7301 23.0433 18.1311 22.8285 18.5178 23.2724C18.9044 23.7164 18.618 24.1031 18.2457 24.4182C16.9567 25.5496 15.6678 26.681 14.3788 27.8267C13.9778 28.1847 13.6484 28.1847 13.2474 27.841C11.9155 26.681 10.5836 25.5209 9.25174 24.3752C8.90803 24.0744 8.72185 23.7164 9.03692 23.3297C9.38064 22.9144 9.79596 23.0146 10.1683 23.344C11.3713 24.3609 12.56 25.392 13.7917 26.4805Z" fill="#AEB0AF"/>
</g>
</g>
<defs>
<clipPath id="clip0_2002_190">
<rect width="27.6405" height="40" fill="white"/>
</clipPath>
</defs>
</svg>
