<svg width="1366" height="204" viewBox="0 0 1366 204" fill="none" xmlns="http://www.w3.org/2000/svg">
<path d="M185.24 154.592L184.597 153.237L185.24 154.592ZM1374.09 2.98698C1374.65 2.3763 1374.61 1.42745 1374 0.867657C1373.39 0.307869 1372.44 0.349123 1371.88 0.959802L1374.09 2.98698ZM-47.5614 192.298C-46.2611 193.394 -44.8257 194.399 -43.2672 195.316L-41.7452 192.731C-43.1732 191.89 -44.4688 190.982 -45.628 190.004L-47.5614 192.298ZM-33.7712 199.44C-30.7037 200.412 -27.3691 201.199 -23.801 201.814L-23.2913 198.858C-26.7478 198.262 -29.9474 197.505 -32.8647 196.58L-33.7712 199.44ZM-13.6673 203.063C-10.4334 203.322 -7.05759 203.475 -3.55648 203.526L-3.51212 200.527C-6.95521 200.476 -10.2655 200.326 -13.4278 200.073L-13.6673 203.063ZM6.58884 203.412C9.86351 203.296 13.225 203.106 16.6622 202.846L16.436 199.855C13.0357 200.112 9.71442 200.299 6.48273 200.414L6.58884 203.412ZM26.7308 201.91C30.0203 201.55 33.3658 201.133 36.7587 200.662L36.3466 197.691C32.9807 198.158 29.6638 198.571 26.4044 198.928L26.7308 201.91ZM46.7189 199.15C49.9955 198.611 53.3074 198.027 56.6473 197.399L56.0932 194.451C52.7748 195.074 49.4853 195.655 46.2319 196.19L46.7189 199.15ZM66.5378 195.432C69.803 194.748 73.088 194.026 76.3865 193.267L75.7143 190.343C72.4343 191.098 69.1682 191.816 65.9224 192.496L66.5378 195.432ZM86.1908 190.918C89.4376 190.108 92.6914 189.266 95.9462 188.394L95.1695 185.496C91.9314 186.364 88.6947 187.202 85.4651 188.007L86.1908 190.918ZM105.654 185.702C108.882 184.777 112.105 183.824 115.317 182.845L114.442 179.975C111.246 180.95 108.039 181.898 104.828 182.818L105.654 185.702ZM124.931 179.824C128.137 178.787 131.326 177.725 134.492 176.64L133.52 173.802C130.37 174.881 127.197 175.938 124.007 176.97L124.931 179.824ZM143.996 173.29C147.175 172.137 150.323 170.963 153.436 169.769L152.362 166.968C149.266 168.155 146.135 169.323 142.974 170.469L143.996 173.29ZM162.804 166.071C165.954 164.791 169.059 163.491 172.112 162.175L170.924 159.42C167.891 160.728 164.806 162.019 161.675 163.291L162.804 166.071ZM181.336 158.071C182.868 157.367 184.385 156.659 185.884 155.947L184.597 153.237C183.11 153.943 181.605 154.646 180.084 155.344L181.336 158.071ZM185.884 155.947C187.413 155.221 188.934 154.476 190.447 153.712L189.095 151.034C187.603 151.787 186.104 152.522 184.597 153.237L185.884 155.947ZM199.411 148.928C202.356 147.273 205.272 145.553 208.162 143.777L206.591 141.221C203.732 142.978 200.85 144.678 197.941 146.313L199.411 148.928ZM216.709 138.317C219.52 136.455 222.308 134.546 225.077 132.597L223.349 130.144C220.602 132.078 217.838 133.971 215.052 135.815L216.709 138.317ZM233.288 126.663C235.996 124.658 238.688 122.621 241.365 120.56L239.535 118.183C236.871 120.234 234.194 122.259 231.503 124.252L233.288 126.663ZM249.335 114.327C251.974 112.233 254.603 110.122 257.221 108.002L255.334 105.671C252.721 107.786 250.101 109.89 247.47 111.977L249.335 114.327ZM265.054 101.62C267.661 99.4846 270.263 97.3463 272.86 95.214L270.956 92.8956C268.358 95.0289 265.758 97.1653 263.153 99.2989L265.054 101.62ZM280.665 88.8197C283.276 86.6886 285.886 84.5705 288.497 82.4724L286.618 80.1339C283.999 82.238 281.383 84.3611 278.768 86.4954L280.665 88.8197ZM296.388 76.2052C299.043 74.1249 301.702 72.0733 304.367 70.0582L302.558 67.6652C299.877 69.6922 297.205 71.7544 294.538 73.8438L296.388 76.2052ZM312.459 64.0775C315.192 62.1066 317.934 60.1821 320.689 58.3119L319.004 55.8298C316.223 57.7175 313.458 59.6585 310.704 61.6442L312.459 64.0775ZM329.087 52.8138C331.937 51.0197 334.803 49.2916 337.688 47.6381L336.196 45.0353C333.272 46.711 330.371 48.4606 327.489 50.275L329.087 52.8138ZM346.497 42.8615C349.484 41.337 352.493 39.8995 355.529 38.5582L354.317 35.8141C351.227 37.1794 348.167 38.6411 345.133 40.1895L346.497 42.8615ZM364.795 34.8043C367.925 33.6523 371.086 32.6086 374.28 31.6826L373.445 28.8013C370.18 29.7478 366.952 30.8137 363.759 31.9888L364.795 34.8043ZM383.96 29.2689C387.199 28.5929 390.476 28.042 393.794 27.6257L393.42 24.6491C390.02 25.0757 386.664 25.64 383.347 26.3321L383.96 29.2689ZM403.715 26.7962C405.371 26.727 407.038 26.6918 408.716 26.6918V23.6918C406.996 23.6918 405.288 23.7278 403.59 23.7989L403.715 26.7962ZM408.716 26.6918C410.347 26.6918 411.978 26.7371 413.608 26.8262L413.772 23.8306C412.088 23.7387 410.402 23.6918 408.716 23.6918V26.6918ZM423.354 27.8649C426.561 28.3692 429.769 29.0296 432.977 29.8334L433.706 26.9233C430.417 26.0991 427.121 25.4204 423.82 24.9013L423.354 27.8649ZM442.409 32.5984C445.487 33.6281 448.564 34.7783 451.64 36.0374L452.777 33.261C449.645 31.9788 446.505 30.8054 443.36 29.7534L442.409 32.5984ZM460.666 40.0363C463.611 41.4368 466.553 42.9268 469.493 44.496L470.906 41.8495C467.929 40.2602 464.945 38.7491 461.955 37.3271L460.666 40.0363ZM478.135 49.3321C480.963 50.9851 483.788 52.702 486.61 54.4738L488.205 51.9332C485.359 50.146 482.507 48.4124 479.648 46.742L478.135 49.3321ZM494.94 59.862C497.68 61.6834 500.417 63.5478 503.148 65.4466L504.861 62.9832C502.114 61.0739 499.36 59.1978 496.601 57.3636L494.94 59.862ZM511.257 71.1848C513.939 73.1139 516.617 75.0678 519.289 77.0385L521.07 74.624C518.389 72.6475 515.702 70.6865 513.009 68.7493L511.257 71.1848ZM527.268 82.9745C529.923 84.9647 532.573 86.963 535.217 88.9615L537.026 86.5682C534.38 84.5686 531.727 82.5676 529.068 80.574L527.268 82.9745ZM543.159 94.9687C545.818 96.9787 548.471 98.9805 551.118 100.965L552.918 98.565C550.276 96.5838 547.626 94.5846 544.968 92.5755L543.159 94.9687ZM559.118 106.918C561.815 108.906 564.504 110.868 567.186 112.793L568.936 110.355C566.266 108.439 563.587 106.485 560.898 104.504L559.118 106.918ZM575.351 118.547C578.122 120.462 580.886 122.327 583.642 124.134L585.286 121.625C582.554 119.833 579.81 117.981 577.056 116.079L575.351 118.547ZM592.091 129.492C594.981 131.259 597.862 132.949 600.733 134.548L602.193 131.927C599.361 130.35 596.515 128.681 593.656 126.933L592.091 129.492ZM609.601 139.204C612.67 140.712 615.728 142.101 618.776 143.355L619.918 140.581C616.938 139.354 613.94 137.993 610.924 136.511L609.601 139.204ZM628.251 146.819C631.518 147.854 634.773 148.715 638.014 149.379L638.617 146.44C635.487 145.799 632.334 144.966 629.157 143.959L628.251 146.819ZM648.062 150.791C649.758 150.915 651.449 150.978 653.137 150.978V147.978C651.525 147.978 649.906 147.918 648.281 147.799L648.062 150.791ZM653.137 150.978C654.867 150.978 656.607 150.911 658.354 150.781L658.131 147.789C656.455 147.914 654.79 147.978 653.137 147.978V150.978ZM668.684 149.313C672.006 148.629 675.354 147.745 678.726 146.682L677.825 143.821C674.54 144.856 671.291 145.713 668.079 146.375L668.684 149.313ZM688.489 143.155C691.621 141.885 694.773 140.483 697.943 138.962L696.646 136.257C693.525 137.754 690.43 139.131 687.362 140.374L688.489 143.155ZM707.119 134.275C710.092 132.668 713.081 130.973 716.084 129.201L714.559 126.618C711.585 128.372 708.629 130.049 705.693 131.635L707.119 134.275ZM724.869 123.837C727.737 122.03 730.616 120.166 733.508 118.254L731.853 115.751C728.977 117.653 726.116 119.505 723.27 121.298L724.869 123.837ZM742.03 112.51C744.832 110.59 747.643 108.634 750.464 106.653L748.74 104.198C745.926 106.174 743.124 108.123 740.334 110.035L742.03 112.51ZM758.837 100.722C761.608 98.7454 764.387 96.7522 767.173 94.7512L765.423 92.3146C762.638 94.3149 759.862 96.3059 757.095 98.2794L758.837 100.722ZM775.495 88.7729C778.266 86.7846 781.043 84.7967 783.826 82.8169L782.087 80.3724C779.299 82.3554 776.519 84.3459 773.746 86.3354L775.495 88.7729ZM792.187 76.9133C794.986 74.9536 797.791 73.0106 800.599 71.0923L798.907 68.6151C796.088 70.5408 793.274 72.4904 790.466 74.4555L792.187 76.9133ZM809.084 65.3872C811.941 63.4995 814.802 61.6458 817.664 59.8347L816.06 57.2995C813.179 59.1224 810.302 60.9868 807.431 62.8842L809.084 65.3872ZM826.358 54.4763C829.301 52.714 832.245 51.0057 835.189 49.3607L833.726 46.7418C830.753 48.4027 827.783 50.1262 824.817 51.9026L826.358 54.4763ZM844.177 44.5453C847.232 42.9814 850.286 41.4959 853.339 40.0989L852.09 37.3711C848.995 38.7878 845.901 40.2926 842.81 41.8748L844.177 44.5453ZM862.688 36.1039C865.874 34.8434 869.056 33.6912 872.232 32.6587L871.305 29.8056C868.065 30.8588 864.824 32.0325 861.585 33.3144L862.688 36.1039ZM881.966 29.8777C885.28 29.0656 888.586 28.3978 891.884 27.887L891.425 24.9224C888.036 25.4473 884.645 26.1326 881.252 26.9639L881.966 29.8777ZM901.925 26.8293C903.605 26.7382 905.283 26.6918 906.959 26.6918V23.6918C905.228 23.6918 903.496 23.7397 901.763 23.8337L901.925 26.8293ZM906.959 26.6918C908.613 26.6918 910.261 26.7255 911.901 26.7918L912.023 23.7943C910.342 23.7263 908.654 23.6918 906.959 23.6918V26.6918ZM921.722 27.5791C924.994 27.9706 928.24 28.4871 931.459 29.1195L932.038 26.1757C928.747 25.5294 925.427 25.0011 922.078 24.6004L921.722 27.5791ZM941.069 31.3625C944.244 32.2197 947.393 33.184 950.518 34.2463L951.484 31.4059C948.301 30.324 945.09 29.3409 941.851 28.4663L941.069 31.3625ZM959.785 37.7031C962.832 38.9394 965.857 40.2628 968.859 41.6642L970.128 38.9459C967.082 37.5239 964.01 36.1798 960.912 34.9231L959.785 37.7031ZM977.738 46.0629C980.656 47.5901 983.553 49.1845 986.429 50.8375L987.924 48.2365C985.016 46.5651 982.084 44.9516 979.129 43.4048L977.738 46.0629ZM994.946 55.9332C997.752 57.6761 1000.54 59.4678 1003.31 61.2998L1004.96 58.7984C1002.17 56.9517 999.362 55.1442 996.529 53.3848L994.946 55.9332ZM1011.53 66.8918C1014.24 68.7886 1016.94 70.7168 1019.63 72.6682L1021.39 70.2424C1018.69 68.2807 1015.98 66.3408 1013.24 64.4315L1011.53 66.8918ZM1027.63 78.5912C1030.29 80.5907 1032.93 82.6049 1035.56 84.6254L1037.39 82.248C1034.75 80.2219 1032.1 78.2007 1029.43 76.1931L1027.63 78.5912ZM1043.43 90.7368C1046.07 92.7942 1048.68 94.8485 1051.28 96.8917L1053.14 94.5326C1050.54 92.4893 1047.92 90.4327 1045.28 88.3726L1043.43 90.7368ZM1059.14 103.055C1061.78 105.124 1064.41 107.172 1067.02 109.188L1068.85 106.813C1066.25 104.803 1063.63 102.759 1060.99 100.692L1059.14 103.055ZM1074.97 115.248C1077.67 117.277 1080.35 119.259 1083.02 121.185L1084.77 118.752C1082.12 116.84 1079.46 114.869 1076.77 112.85L1074.97 115.248ZM1091.21 126.938C1094.03 128.858 1096.83 130.699 1099.62 132.448L1101.21 129.907C1098.46 128.181 1095.69 126.36 1092.9 124.459L1091.21 126.938ZM1108.27 137.588C1111.26 139.26 1114.24 140.807 1117.2 142.211L1118.49 139.499C1115.59 138.128 1112.67 136.612 1109.73 134.969L1108.27 137.588ZM1126.52 146.144C1129.77 147.338 1133 148.334 1136.23 149.105L1136.93 146.188C1133.83 145.446 1130.7 144.486 1127.56 143.328L1126.52 146.144ZM1146.27 150.757C1147.98 150.903 1149.68 150.978 1151.38 150.978V147.978C1149.77 147.978 1148.15 147.907 1146.53 147.768L1146.27 150.757ZM1151.38 150.978C1153.01 150.978 1154.65 150.933 1156.3 150.844L1156.14 147.848C1154.54 147.935 1152.95 147.978 1151.38 147.978V150.978ZM1166.12 149.826C1169.3 149.345 1172.51 148.719 1175.75 147.958L1175.07 145.038C1171.9 145.781 1168.77 146.392 1165.67 146.86L1166.12 149.826ZM1185.22 145.381C1188.3 144.432 1191.39 143.373 1194.5 142.212L1193.45 139.402C1190.4 140.543 1187.35 141.583 1184.34 142.514L1185.22 145.381ZM1203.59 138.552C1206.55 137.277 1209.52 135.919 1212.49 134.483L1211.18 131.782C1208.25 133.2 1205.32 134.54 1202.41 135.797L1203.59 138.552ZM1221.2 130.068C1224.05 128.558 1226.9 126.983 1229.74 125.35L1228.25 122.748C1225.43 124.365 1222.61 125.924 1219.79 127.417L1221.2 130.068ZM1238.14 120.37C1240.89 118.682 1243.64 116.944 1246.38 115.161L1244.75 112.645C1242.03 114.414 1239.3 116.138 1236.57 117.812L1238.14 120.37ZM1254.5 109.749C1257.17 107.921 1259.83 106.056 1262.48 104.157L1260.74 101.718C1258.1 103.605 1255.46 105.458 1252.8 107.273L1254.5 109.749ZM1270.35 98.404C1272.95 96.4634 1275.54 94.4953 1278.11 92.5046L1276.27 90.1332C1273.71 92.1132 1271.14 94.0703 1268.56 95.9997L1270.35 98.404ZM1285.76 86.4724C1288.29 84.4374 1290.81 82.3846 1293.31 80.3186L1291.39 78.0077C1288.91 80.0641 1286.4 82.1072 1283.88 84.132L1285.76 86.4724ZM1300.76 74.0528C1303.25 71.9364 1305.7 69.8116 1308.13 67.6833L1306.15 65.4274C1303.73 67.547 1301.29 69.6629 1298.82 71.7701L1300.76 74.0528ZM1315.41 61.2174C1317.84 59.0285 1320.24 56.8414 1322.6 54.6614L1320.57 52.4563C1318.21 54.6281 1315.82 56.807 1313.4 58.9873L1315.41 61.2174ZM1329.72 48.0216C1332.1 45.7665 1334.45 43.5252 1336.75 41.3041L1334.66 39.1466C1332.37 41.3601 1330.04 43.5935 1327.66 45.8406L1329.72 48.0216ZM1343.71 34.5032C1346.07 32.1734 1348.37 29.874 1350.61 27.6128L1348.48 25.5016C1346.24 27.7553 1343.95 30.047 1341.6 32.369L1343.71 34.5032ZM1357.43 20.6541C1359.75 18.2573 1361.99 15.9166 1364.15 13.6424L1361.97 11.5778C1359.82 13.8443 1357.59 16.1772 1355.27 18.566L1357.43 20.6541ZM1370.82 6.53544C1371.94 5.32679 1373.03 4.14333 1374.09 2.98698L1371.88 0.959802C1370.82 2.11188 1369.73 3.29106 1368.62 4.49541L1370.82 6.53544Z" fill="#F0E6C3"/>
</svg>
