<svg width="30" height="30" viewBox="0 0 30 30" fill="none" xmlns="http://www.w3.org/2000/svg">
<g id="Group 10443">
<g id="Ellipse 210" filter="url(#filter0_b_2099_3)">
<circle cx="14.731" cy="15.1333" r="14.731" fill="#51CB5F"/>
</g>
<g id="Group 954">
<g id="Group 9956">
<path id="Vector" d="M11.4584 20.6831C12.4195 21.2529 13.5374 21.5777 14.7322 21.5777C18.2864 21.5777 21.1753 18.6869 21.1753 15.1331C21.1753 11.5794 18.2864 8.68858 14.7322 8.68858H14.7293C11.1752 8.68858 8.28623 11.5786 8.28623 15.1331C8.28623 16.4186 8.66452 17.6199 9.31767 18.6267L8.70087 20.4654L8.2878 21.6967L9.52488 21.3012L11.4584 20.6831Z" stroke="white" stroke-width="1.31572"/>
<g id="Group 9955">
<path id="Vector_2" d="M17.614 17.9674L17.565 18.0165C17.3202 18.2632 16.9921 18.4098 16.645 18.4274H16.4028C15.1211 18.4274 14.0907 17.949 13.0022 16.8635C11.8462 15.7074 11.3801 14.6189 11.4446 13.2206H11.4445C11.4621 12.8735 11.6086 12.5454 11.8554 12.3007L11.9044 12.2516C12.2148 11.9399 12.6537 11.792 13.0894 11.8524C13.5251 11.9126 13.9073 12.174 14.1215 12.5582L14.189 12.6809H14.1889C14.2741 12.8361 14.3067 13.0146 14.2818 13.1899C14.2569 13.3652 14.1759 13.5276 14.0509 13.653L13.64 14.0639C13.8773 14.5205 14.188 14.9348 14.56 15.2904C14.9155 15.6624 15.3299 15.9731 15.7865 16.2103L16.1943 15.8055C16.3226 15.6795 16.4888 15.5993 16.6673 15.5771C16.8457 15.5549 17.0265 15.5921 17.1817 15.6829L17.3044 15.7504C17.6886 15.9646 17.95 16.3467 18.0103 16.7825C18.0706 17.2182 17.9227 17.6569 17.611 17.9674L17.614 17.9674Z" fill="white"/>
</g>
</g>
</g>
</g>
<defs>
<filter id="filter0_b_2099_3" x="-3.7368" y="-3.33446" width="36.9355" height="36.9355" filterUnits="userSpaceOnUse" color-interpolation-filters="sRGB">
<feFlood flood-opacity="0" result="BackgroundImageFix"/>
<feGaussianBlur in="BackgroundImageFix" stdDeviation="1.8684"/>
<feComposite in2="SourceAlpha" operator="in" result="effect1_backgroundBlur_2099_3"/>
<feBlend mode="normal" in="SourceGraphic" in2="effect1_backgroundBlur_2099_3" result="shape"/>
</filter>
</defs>
</svg>
