<svg width="80" height="71" viewBox="0 0 80 71" fill="none" xmlns="http://www.w3.org/2000/svg">
<g id="Frame" clip-path="url(#clip0_2033_719)">
<g id="Group">
<path id="Vector" d="M37.745 33.4485C39.632 32.7209 41.4225 32.2394 43.02 31.3942C49.292 28.088 52.7444 20.9514 51.4149 14.3391C49.9032 6.88145 44.3601 1.40327 36.9945 1.01808C29.6717 0.643598 22.2953 0.6115 14.9725 1.03948C6.68477 1.52096 0.3162 8.88227 0.337643 17.1316C0.359085 25.3168 6.7491 32.4213 14.9403 33.1703C17.9531 33.4485 20.998 33.2666 24.0214 33.395C24.6755 33.4271 25.4581 33.7267 25.9192 34.1761C28.4065 36.5514 30.8403 38.9909 33.2312 41.4518C34.1104 42.3612 35.0753 42.8855 36.2869 42.3933C37.5198 41.8905 37.7557 40.7563 37.745 39.5366C37.7235 37.4929 37.745 35.4279 37.745 33.4485ZM23.7749 17.1102C23.7641 15.8798 24.7612 14.8205 25.9942 14.767C27.2057 14.7135 28.4173 15.8584 28.4387 17.0674C28.4602 18.2658 27.2593 19.4428 26.0371 19.4107C24.8148 19.3893 23.7856 18.3407 23.7749 17.1102ZM14.415 17.1209C14.3828 15.9868 15.4871 14.8312 16.6558 14.767C17.9209 14.6921 19.0467 15.7621 19.0681 17.046C19.0896 18.2765 18.0925 19.3465 16.8702 19.4107C15.6694 19.4642 14.4471 18.3407 14.415 17.1209ZM33.124 17.046C33.1347 15.7835 34.1211 14.7777 35.3541 14.767C36.5978 14.7456 37.7343 15.8905 37.7021 17.1316C37.6807 18.33 36.6085 19.4 35.4077 19.4107C34.1211 19.4214 33.1026 18.3728 33.124 17.046Z" fill="#E4B5BF"/>
<path id="Vector_2" d="M23.7748 17.1102C23.7855 18.3407 24.8148 19.3892 26.037 19.4106C27.2486 19.432 28.4494 18.2658 28.4386 17.0674C28.4172 15.8584 27.2057 14.7135 25.9941 14.767C24.7612 14.8205 23.7641 15.8798 23.7748 17.1102Z" fill="#856068"/>
<path id="Vector_3" d="M14.4149 17.121C14.447 18.3301 15.6586 19.4642 16.8701 19.4C18.0924 19.3358 19.0895 18.2766 19.068 17.0354C19.0466 15.7515 17.9208 14.6815 16.6557 14.7564C15.487 14.8313 14.3934 15.9868 14.4149 17.121Z" fill="#856068"/>
<path id="Vector_4" d="M33.124 17.0462C33.1133 18.3729 34.1318 19.4322 35.4077 19.4108C36.6085 19.3894 37.6806 18.3301 37.7021 17.1317C37.7343 15.8906 36.5978 14.7457 35.3541 14.7671C34.1104 14.7778 33.1347 15.7836 33.124 17.0462Z" fill="#856068"/>
</g>
<g id="Group 10413">
<path id="Vector_5" d="M68.1404 11.4502C66.6715 11.4502 65.2027 11.4502 63.7338 11.4502C62.34 11.4609 61.4073 12.0707 60.9569 13.4403C59.5095 17.8164 58.0407 22.1925 56.5504 26.5473C56.1966 27.5851 56.3038 28.4839 56.9364 29.3934C58.0085 30.9341 58.9949 32.539 60.0885 34.0584C60.5495 34.711 60.5495 35.2032 60.1528 35.8773C56.3789 42.297 51.2969 47.39 44.8318 51.1135C44.1778 51.488 43.7168 51.4452 43.1164 51.0172C41.5403 49.9044 39.975 48.781 38.2917 47.8608C37.5841 47.4756 36.5119 47.283 35.7614 47.5184C31.3013 48.888 26.8947 50.418 22.4667 51.8732C21.416 52.2155 20.5583 52.8575 20.5369 53.9489C20.4833 57.469 20.2796 61.032 20.6655 64.5094C21.1158 68.4682 24.2572 70.6188 28.4279 70.469C37.4447 70.148 45.7217 67.4731 53.2911 62.6583C65.3313 54.9974 73.7799 44.5012 77.9505 30.7629C79.1299 26.8576 79.7089 22.8238 79.7089 18.7366C79.7089 14.5744 76.739 11.5572 72.5469 11.4609C71.078 11.4288 69.6092 11.4502 68.1404 11.4502Z" fill="#AEB0AF"/>
<path id="Vector 410" d="M76.9535 22.4644C75.6679 28.4011 71.2362 42.0215 63.7946 49.0093" stroke="white" stroke-width="0.7" stroke-linecap="round"/>
<path id="Vector 409" d="M23.4189 54.1562C22.9282 57.8498 22.9385 65.6089 26.9059 67.0967" stroke="white" stroke-width="0.7" stroke-linecap="round"/>
</g>
</g>
<defs>
<clipPath id="clip0_2033_719">
<rect width="79.3713" height="69.7505" fill="white" transform="matrix(-1 0 0 1 79.7087 0.729309)"/>
</clipPath>
</defs>
</svg>
