<svg width="125" height="114" viewBox="0 0 125 114" fill="none" xmlns="http://www.w3.org/2000/svg">
<g id="Frame" clip-path="url(#clip0_2033_740)">
<g id="Group">
<g id="Group_2">
<g id="Group_3">
<path id="Vector" d="M20.4277 80.6043C20.4277 80.6043 40.773 100.111 45.9794 103.707C52.0227 107.881 59.9475 99.6179 57.1786 95.0378C54.4098 90.4577 33.6574 75.9471 33.6574 75.9471L20.4277 80.6043Z" fill="#AEB0AF"/>
<path id="Vector_2" d="M24.3736 57.4663L71.2104 11.3368L95.659 64.2464L32.5702 78.6497L24.3736 57.4663Z" fill="#A3CBD7"/>
<path id="Vector_3" d="M96.7196 64.8245C99.7623 63.3771 96.4688 50.0952 89.3635 35.1585C82.2582 20.2218 74.0316 9.28664 70.9889 10.734C67.9462 12.1814 71.2396 25.4633 78.345 40.4C85.4503 55.3367 93.6769 66.2719 96.7196 64.8245Z" fill="#8CB8C5"/>
<path id="Vector_4" d="M96.2584 62.7771C95.5191 62.5062 93.5055 61.071 90.1718 56.4584C86.95 52.0042 83.4416 45.9038 80.2936 39.2861C77.1455 32.6683 74.6262 26.0974 73.2032 20.7875C71.728 15.2909 71.885 12.8232 72.1413 12.0786C72.8806 12.3495 74.8942 13.7848 78.2279 18.3973C81.4497 22.8515 84.9581 28.9519 88.1061 35.5697C91.2542 42.1874 93.7735 48.7583 95.1965 54.0682C96.6701 59.5615 96.5147 62.0325 96.2584 62.7771Z" fill="#CBE5ED"/>
<g id="Group_4">
<g id="Clip path group">
<mask id="mask0_2033_740" style="mask-type:luminance" maskUnits="userSpaceOnUse" x="71" y="12" width="26" height="51">
<g id="SVGID_6_">
<path id="Vector_5" d="M96.2584 62.7771C95.5191 62.5062 93.5055 61.071 90.1718 56.4584C86.95 52.0042 83.4416 45.9038 80.2936 39.2861C77.1455 32.6683 74.6262 26.0974 73.2032 20.7875C71.728 15.2909 71.885 12.8232 72.1413 12.0786C72.8806 12.3495 74.8942 13.7848 78.2279 18.3973C81.4497 22.8515 91.5559 25.8133 94.704 32.4311C97.852 39.0488 93.7702 48.7599 95.1965 54.0682C96.6701 59.5615 96.5147 62.0325 96.2584 62.7771Z" fill="white"/>
</g>
</mask>
<g mask="url(#mask0_2033_740)">
<path id="Vector_6" d="M91.1694 33.8642C93.356 38.4608 92.6515 43.3623 87.7529 45.6925C82.8543 48.0228 77.1102 46.1888 74.9237 41.5922C72.7371 36.9956 74.9384 31.3821 79.837 29.0518C84.7356 26.7216 88.9844 29.2709 91.1694 33.8642Z" fill="#AEB0AF"/>
</g>
</g>
</g>
<path id="Vector_7" d="M14.7882 60.6385C17.2814 59.0781 21.0112 57.1654 25.5502 56.158C27.5513 63.8383 31.2459 71.0832 36.4196 77.938L24.88 83.4274C23.0413 84.302 20.8353 83.7113 19.6863 82.0317C17.3753 78.6623 13.7605 72.877 12.1708 67.6017C11.3728 64.9574 12.4464 62.1066 14.7882 60.6385Z" fill="#7E7E7E"/>
<path id="Vector_8" d="M24.2768 62.738L15.2894 67.0133C14.984 67.1585 14.6394 67.1271 14.3655 66.9278C14.0916 66.7284 13.9565 66.4101 14.0009 66.0756C14.02 65.9363 14.1485 65.8385 14.2863 65.8544C14.4257 65.8735 14.5267 66.0005 14.5076 66.1398C14.4882 66.2874 14.5496 66.425 14.668 66.5112C14.7863 66.5974 14.9389 66.6102 15.0717 66.5471L24.0624 62.2702C24.2582 62.1771 24.3451 61.9404 24.2503 61.7413L23.9456 61.1007C23.8525 60.9049 23.6158 60.8181 23.4167 60.9128L14.3563 65.2228C14.2301 65.2828 14.075 65.2305 14.0134 65.101C13.9534 64.9749 14.0058 64.8198 14.1352 64.7582L23.1923 60.4498C23.6437 60.235 24.1873 60.4282 24.402 60.8796L24.7067 61.5201C24.9213 61.9797 24.7315 62.5217 24.2768 62.738Z" fill="white"/>
<path id="Vector_9" d="M25.3698 67.0981L16.3791 71.3749C16.0738 71.5202 15.7292 71.4888 15.4552 71.2894C15.1813 71.09 15.0462 70.7717 15.0906 70.4373C15.1098 70.2979 15.2383 70.2001 15.376 70.216C15.5154 70.2352 15.6165 70.3621 15.5973 70.5015C15.578 70.649 15.6394 70.7867 15.7577 70.8728C15.876 70.959 16.0286 70.9719 16.1614 70.9087L25.1488 66.6334C25.3446 66.5403 25.4315 66.3036 25.3367 66.1045L25.032 65.464C24.9389 65.2681 24.7022 65.1813 24.5031 65.276L15.446 69.5845C15.3199 69.6445 15.1647 69.5921 15.1031 69.4627C15.0416 69.3332 15.0955 69.1814 15.2249 69.1198L24.2821 64.8114C24.7334 64.5967 25.2771 64.7898 25.4918 65.2412L25.7965 65.8817C26.0159 66.343 25.8212 66.8834 25.3698 67.0981Z" fill="white"/>
<path id="Vector_10" opacity="0.69" d="M31.8443 52.167C31.7447 52.2143 31.6251 52.1939 31.5479 52.1086C31.4496 52.0047 31.4578 51.8421 31.5583 51.7455L67.6091 18.0197C67.713 17.9214 67.8756 17.9295 67.9689 18.0317C68.0671 18.1355 68.059 18.2981 67.9585 18.3948L31.9077 52.1205C31.8925 52.14 31.8675 52.1559 31.8443 52.167Z" fill="white"/>
<path id="Vector_11" opacity="0.69" d="M27.2154 57.2458C27.1258 57.2885 27.0143 57.2764 26.9318 57.2057C26.8252 57.1099 26.8218 56.9488 26.9143 56.8437L28.6767 54.9106C28.7725 54.8039 28.9337 54.8005 29.0387 54.893C29.1453 54.9888 29.1487 55.15 29.0562 55.255L27.2938 57.1882C27.2736 57.2141 27.2453 57.2316 27.2154 57.2458Z" fill="white"/>
<path id="Vector_12" d="M28.3879 71.3803L19.4005 75.6556C19.0951 75.8008 18.7505 75.7694 18.4766 75.57C18.2027 75.3707 18.0676 75.0524 18.1119 74.7179C18.1311 74.5785 18.2596 74.4808 18.3974 74.4966C18.5368 74.5158 18.6378 74.6427 18.6187 74.7821C18.5993 74.9297 18.6607 75.0673 18.779 75.1535C18.8974 75.2396 19.05 75.2525 19.1827 75.1894L28.1735 70.9125C28.3693 70.8193 28.4561 70.5827 28.3614 70.3835L28.0567 69.743C27.9636 69.5472 27.7269 69.4604 27.5278 69.5551L18.4673 73.8651C18.3412 73.9251 18.1861 73.8727 18.1245 73.7433C18.0645 73.6172 18.1169 73.462 18.2463 73.4005L27.3034 69.092C27.7548 68.8773 28.2984 69.0705 28.5131 69.5218L28.8178 70.1624C29.034 70.6253 28.8426 71.164 28.3879 71.3803Z" fill="white"/>
<path id="Vector_13" d="M31.6938 76.1568L22.7031 80.4337C22.3977 80.5789 22.0531 80.5475 21.7792 80.3481C21.5053 80.1488 21.3702 79.8305 21.4146 79.496C21.4337 79.3567 21.5622 79.2589 21.7 79.2748C21.8394 79.2939 21.9404 79.4208 21.9213 79.5602C21.9019 79.7078 21.9633 79.8454 22.0817 79.9316C22.2 80.0178 22.3526 80.0306 22.4854 79.9675L31.4761 75.6906C31.6719 75.5974 31.7587 75.3608 31.664 75.1617L31.3593 74.5211C31.2662 74.3253 31.0295 74.2385 30.8304 74.3332L21.7699 78.6432C21.6438 78.7032 21.4887 78.6508 21.4271 78.5214C21.3671 78.3953 21.4195 78.2401 21.5489 78.1786L30.606 73.8701C31.0574 73.6554 31.601 73.8486 31.8157 74.2999L32.1204 74.9405C32.3383 75.3985 32.1452 75.9421 31.6938 76.1568Z" fill="white"/>
<path id="Vector_14" d="M53.1084 100.478C52.6935 100.676 52.2548 100.832 51.7924 100.938C49.7743 101.409 47.7144 100.912 46.1378 99.5738L31.3652 87.0333C31.2568 86.9424 31.2452 86.7811 31.3361 86.6727C31.427 86.5643 31.5883 86.5527 31.6967 86.6436L46.4693 99.1841C47.9214 100.414 49.821 100.874 51.6773 100.439C53.5022 100.014 54.9745 98.7889 55.7117 97.0789C55.7496 96.9876 55.7909 96.8947 55.8306 96.7985C55.8825 96.668 56.0317 96.6052 56.1622 96.657C56.2927 96.7089 56.3555 96.8581 56.3036 96.9886C56.2655 97.0881 56.2225 97.1859 56.1812 97.2788C55.5646 98.7117 54.4791 99.8264 53.1084 100.478Z" fill="white"/>
<path id="Vector_15" d="M29.4578 85.2136C29.3682 85.2562 29.2615 85.2459 29.1807 85.1785L27.5346 83.7801C27.4262 83.6892 27.4146 83.5279 27.5055 83.4195C27.5964 83.3112 27.7577 83.2995 27.8661 83.3904L29.5122 84.7889C29.6205 84.8798 29.6321 85.0411 29.5412 85.1494C29.5177 85.1769 29.4877 85.1994 29.4578 85.2136Z" fill="white"/>
<path id="Vector_16" d="M89.7413 34.2502C89.6218 34.3071 89.4747 34.2631 89.4097 34.1434C88.18 31.969 86.6012 30.6607 84.7169 30.2588C81.4592 29.5619 78.3574 31.8107 78.324 31.8347C78.209 31.9179 78.0516 31.8951 77.965 31.7816C77.8818 31.6666 77.9046 31.5092 78.0181 31.4227C78.1499 31.3233 81.3417 29.0155 84.8205 29.7578C86.8537 30.1906 88.5459 31.5833 89.8519 33.8924C89.9218 34.0138 89.8793 34.1724 89.753 34.2406C89.7513 34.2455 89.7446 34.2486 89.7413 34.2502Z" fill="white"/>
</g>
</g>
<path id="Vector_17" d="M109.235 43.7717L101.937 46.1896L101.166 42.2587L92.4406 43.5521L103.879 38.7824L104.124 43.1058L109.235 43.7717Z" fill="#DDC56A"/>
<path id="Vector_18" d="M113.879 66.4259L107.665 65.3241L108.637 62.1836L101.832 59.7189L111.955 60.7314L110.445 63.9485L113.879 66.4259Z" fill="#DDC56A"/>
<path id="Vector_19" d="M91.0014 0.383886L89.6278 11.5701L85.9178 10.6326L83.4728 18.694L84.0256 6.86864L87.8582 8.42342L91.0014 0.383886Z" fill="#DDC56A"/>
</g>
</g>
<defs>
<clipPath id="clip0_2033_740">
<rect width="100.421" height="77.2125" fill="white" transform="translate(0.317505 43.5219) rotate(-25.4403)"/>
</clipPath>
</defs>
</svg>
