<svg width="156" height="143" viewBox="0 0 156 143" fill="none" xmlns="http://www.w3.org/2000/svg">
<g id="Frame" clip-path="url(#clip0_2005_227)">
<g id="Group">
<g id="Group_2">
<g id="Group_3">
<path id="Vector" d="M25.1741 101.222C25.1741 101.222 50.6422 125.64 57.1595 130.141C64.7245 135.366 74.6448 125.023 71.1787 119.289C67.7127 113.556 41.7349 95.3918 41.7349 95.3918L25.1741 101.222Z" fill="#AEB0AF"/>
<path id="Vector_2" d="M30.1135 72.2576L88.7437 14.5128L119.348 80.7449L40.374 98.7749L30.1135 72.2576Z" fill="#E4B5BF"/>
<path id="Vector_3" d="M120.676 81.4687C124.485 79.6568 120.362 63.0306 111.468 44.3329C102.573 25.6352 92.2751 11.9466 88.4663 13.7584C84.6575 15.5703 88.7802 32.1965 97.6746 50.8942C106.569 69.5919 116.867 83.2805 120.676 81.4687Z" fill="#D7A3AE"/>
<path id="Vector_4" d="M120.099 78.9058C119.173 78.5666 116.652 76.77 112.479 70.9961C108.446 65.4203 104.055 57.7838 100.114 49.4997C96.1731 41.2156 93.0194 32.9902 91.2381 26.3434C89.3915 19.4627 89.588 16.3736 89.9088 15.4415C90.8343 15.7807 93.3549 17.5773 97.5281 23.3512C101.561 28.927 105.953 36.5635 109.894 44.8476C113.834 53.1317 116.988 61.3571 118.769 68.004C120.614 74.8805 120.419 77.9737 120.099 78.9058Z" fill="#856168"/>
<g id="Group_4">
<g id="Clip path group">
<mask id="mask0_2005_227" style="mask-type:luminance" maskUnits="userSpaceOnUse" x="89" y="15" width="32" height="64">
<g id="SVGID_6_">
<path id="Vector_5" d="M120.099 78.9058C119.173 78.5666 116.652 76.77 112.479 70.9961C108.446 65.4203 104.055 57.7838 100.114 49.4997C96.1731 41.2156 93.0194 32.9902 91.2381 26.3434C89.3915 19.4627 89.588 16.3736 89.9088 15.4415C90.8343 15.7807 93.3549 17.5773 97.5281 23.3512C101.561 28.927 114.212 32.6346 118.153 40.9187C122.093 49.2028 116.984 61.3591 118.769 68.004C120.614 74.8805 120.419 77.9737 120.099 78.9058Z" fill="white"/>
</g>
</mask>
<g mask="url(#mask0_2005_227)">
<path id="Vector_6" d="M113.728 42.7126C116.465 48.4666 115.583 54.6023 109.451 57.5193C103.319 60.4363 96.129 58.1406 93.3918 52.3866C90.6547 46.6326 93.4102 39.6056 99.5423 36.6886C105.674 33.7716 110.993 36.9628 113.728 42.7126Z" fill="#AEB0AF"/>
</g>
</g>
</g>
<path id="Vector_7" d="M18.1144 76.2285C21.2354 74.2751 25.9043 71.8809 31.5861 70.6199C34.0911 80.234 38.7161 89.3032 45.1925 97.884L30.7472 104.756C28.4456 105.85 25.6841 105.111 24.2458 103.008C21.3529 98.7906 16.8279 91.5487 14.8379 84.9451C13.839 81.6349 15.1829 78.0662 18.1144 76.2285Z" fill="#7E7E7E"/>
<path id="Vector_8" d="M29.9923 78.8566L18.7419 84.2084C18.3596 84.3902 17.9283 84.3509 17.5854 84.1013C17.2425 83.8518 17.0733 83.4533 17.1289 83.0346C17.1529 82.8602 17.3138 82.7378 17.4862 82.7577C17.6607 82.7817 17.7872 82.9405 17.7632 83.115C17.739 83.2997 17.8159 83.472 17.964 83.5799C18.1121 83.6877 18.3031 83.7038 18.4693 83.6248L29.7239 78.271C29.969 78.1544 30.0777 77.8582 29.9592 77.6089L29.5777 76.8071C29.4611 76.562 29.1649 76.4532 28.9156 76.5718L17.5738 81.9671C17.4159 82.0422 17.2217 81.9766 17.1446 81.8146C17.0695 81.6567 17.1351 81.4625 17.2971 81.3855L28.6348 75.9922C29.1998 75.7234 29.8803 75.9652 30.1491 76.5302L30.5305 77.332C30.7991 77.9073 30.5614 78.5858 29.9923 78.8566Z" fill="white"/>
<path id="Vector_9" d="M31.3604 84.3146L20.1059 89.6684C19.7237 89.8502 19.2923 89.8108 18.9494 89.5613C18.6065 89.3117 18.4374 88.9133 18.4929 88.4946C18.5169 88.3201 18.6778 88.1978 18.8502 88.2176C19.0247 88.2416 19.1512 88.4005 19.1272 88.5749C19.103 88.7597 19.1799 88.932 19.328 89.0398C19.4761 89.1477 19.6672 89.1638 19.8333 89.0847L31.0838 83.733C31.3289 83.6163 31.4376 83.3201 31.319 83.0708L30.9376 82.269C30.821 82.0239 30.5247 81.9152 30.2755 82.0338L18.9378 87.4271C18.7799 87.5022 18.5857 87.4366 18.5086 87.2746C18.4316 87.1126 18.4991 86.9225 18.6611 86.8454L29.9988 81.4521C30.5638 81.1833 31.2443 81.4251 31.5131 81.9901L31.8945 82.792C32.1692 83.3694 31.9255 84.0458 31.3604 84.3146Z" fill="white"/>
<path id="Vector_10" opacity="0.69" d="M39.4651 65.6238C39.3405 65.6831 39.1908 65.6575 39.0941 65.5507C38.9711 65.4207 38.9813 65.2171 39.1071 65.0961L84.2355 22.8783C84.3655 22.7553 84.569 22.7655 84.6859 22.8933C84.8088 23.0233 84.7987 23.2268 84.6728 23.3478L39.5445 65.5657C39.5255 65.59 39.4942 65.61 39.4651 65.6238Z" fill="white"/>
<path id="Vector_11" opacity="0.69" d="M33.6708 71.9817C33.5586 72.0351 33.4189 72.02 33.3157 71.9315C33.1823 71.8116 33.178 71.6099 33.2938 71.4784L35.5 69.0584C35.6199 68.925 35.8216 68.9207 35.9531 69.0365C36.0866 69.1564 36.0909 69.3581 35.9751 69.4896L33.7689 71.9096C33.7436 71.942 33.7081 71.9639 33.6708 71.9817Z" fill="white"/>
<path id="Vector_12" d="M35.1385 89.675L23.8881 95.0268C23.5059 95.2086 23.0745 95.1692 22.7316 94.9197C22.3887 94.6701 22.2196 94.2717 22.2751 93.853C22.2991 93.6785 22.46 93.5562 22.6325 93.576C22.8069 93.6 22.9334 93.7589 22.9094 93.9333C22.8852 94.1181 22.9621 94.2904 23.1102 94.3982C23.2583 94.5061 23.4494 94.5222 23.6156 94.4431L34.8701 89.0894C35.1153 88.9728 35.224 88.6765 35.1054 88.4272L34.724 87.6254C34.6074 87.3803 34.3111 87.2716 34.0618 87.3902L22.72 92.7855C22.5621 92.8606 22.3679 92.795 22.2909 92.633C22.2158 92.4751 22.2813 92.2809 22.4433 92.2038L33.781 86.8105C34.346 86.5417 35.0265 86.7835 35.2953 87.3485L35.6767 88.1504C35.9473 88.7298 35.7077 89.4042 35.1385 89.675Z" fill="white"/>
<path id="Vector_13" d="M39.2767 95.6544L28.0221 101.008C27.6399 101.19 27.2085 101.151 26.8657 100.901C26.5228 100.652 26.3536 100.253 26.4092 99.8344C26.4332 99.66 26.594 99.5376 26.7665 99.5575C26.941 99.5815 27.0675 99.7403 27.0435 99.9148C27.0193 100.1 27.0961 100.272 27.2442 100.38C27.3924 100.488 27.5834 100.504 27.7496 100.425L39.0042 95.0708C39.2493 94.9542 39.358 94.658 39.2394 94.4087L38.858 93.6069C38.7414 93.3618 38.4451 93.253 38.1959 93.3716L26.8541 98.7669C26.6962 98.842 26.502 98.7764 26.4249 98.6144C26.3498 98.4566 26.4153 98.2623 26.5774 98.1853L37.915 92.792C38.4801 92.5232 39.1606 92.765 39.4293 93.33L39.8108 94.1318C40.0835 94.7051 39.8417 95.3857 39.2767 95.6544Z" fill="white"/>
<path id="Vector_14" d="M66.0836 126.1C65.5642 126.347 65.0151 126.542 64.4363 126.675C61.91 127.265 59.3314 126.642 57.3578 124.968L38.8655 109.269C38.7298 109.156 38.7153 108.954 38.8291 108.818C38.9428 108.682 39.1448 108.668 39.2804 108.782L57.7728 124.48C59.5905 126.02 61.9684 126.595 64.2921 126.05C66.5765 125.519 68.4196 123.985 69.3424 121.844C69.3899 121.73 69.4416 121.614 69.4913 121.493C69.5562 121.33 69.743 121.251 69.9063 121.316C70.0697 121.381 70.1483 121.568 70.0834 121.731C70.0356 121.856 69.9818 121.978 69.9301 122.095C69.1582 123.888 67.7994 125.284 66.0836 126.1Z" fill="white"/>
<path id="Vector_15" d="M36.4777 106.991C36.3656 107.045 36.2321 107.032 36.1308 106.948L34.0703 105.197C33.9347 105.083 33.9201 104.881 34.0339 104.746C34.1477 104.61 34.3496 104.595 34.4853 104.709L36.5458 106.46C36.6814 106.574 36.696 106.776 36.5822 106.911C36.5527 106.946 36.5151 106.974 36.4777 106.991Z" fill="white"/>
<path id="Vector_16" d="M111.941 43.1958C111.791 43.2669 111.607 43.2118 111.525 43.0621C109.986 40.3402 108.01 38.7024 105.651 38.1993C101.573 37.3269 97.6902 40.142 97.6484 40.172C97.5044 40.2762 97.3074 40.2477 97.199 40.1056C97.0949 39.9616 97.1234 39.7646 97.2655 39.6562C97.4305 39.5319 101.426 36.6429 105.781 37.5721C108.326 38.1139 110.444 39.8573 112.079 42.7478C112.167 42.8997 112.113 43.0983 111.955 43.1837C111.953 43.1898 111.945 43.1938 111.941 43.1958Z" fill="white"/>
</g>
</g>
<path id="Vector_17" d="M136.343 55.1147L127.207 58.1415L126.241 53.2207L115.319 54.8398L129.638 48.8692L129.945 54.2812L136.343 55.1147Z" fill="#856068"/>
<path id="Vector_18" d="M142.155 83.4729L134.377 82.0937L135.594 78.1624L127.076 75.0771L139.748 76.3446L137.858 80.3717L142.155 83.4729Z" fill="#856068"/>
<path id="Vector_19" d="M113.518 0.802098L111.798 14.805L107.154 13.6314L104.094 23.7227L104.786 8.9197L109.583 10.866L113.518 0.802098Z" fill="#856068"/>
</g>
</g>
<defs>
<clipPath id="clip0_2005_227">
<rect width="125.707" height="96.6544" fill="white" transform="translate(0 54.8018) rotate(-25.4403)"/>
</clipPath>
</defs>
</svg>
