<svg width="19" height="14" viewBox="0 0 19 14" fill="none" xmlns="http://www.w3.org/2000/svg">
<g id="Group">
<g id="Group_2">
<g id="Group_3">
<path id="Vector" d="M0.53432 1.40771C0.515329 1.54167 0.496338 1.67563 0.496338 1.80959V11.7448C0.496338 11.8565 0.515329 11.9681 0.53432 12.0797L5.88985 6.2972L0.53432 1.40771Z" fill="white"/>
<path id="Vector_2" d="M18.5034 1.40723L13.1669 6.27439L18.5224 12.0569C18.5414 11.9453 18.5414 11.8337 18.5414 11.722V1.8091C18.5414 1.67514 18.5224 1.54119 18.5034 1.40723Z" fill="white"/>
<path id="Vector_3" d="M10.7893 8.44108C10.0676 9.11087 8.96614 9.11087 8.24447 8.44108L7.105 7.41406L1.59753 13.3529C1.69249 13.3752 1.78745 13.3975 1.8824 13.3975H17.1134C17.2083 13.3975 17.3033 13.3752 17.3983 13.3529L11.9288 7.41406L10.7893 8.44108Z" fill="white"/>
<path id="Vector_4" d="M9.86009 7.01179L17.3616 0.15758C17.2857 0.135254 17.2287 0.135254 17.1527 0.135254H1.90275C1.82679 0.135254 1.76981 0.135254 1.69385 0.15758L9.19539 7.01179C9.38531 7.1904 9.65118 7.1904 9.86009 7.01179Z" fill="white"/>
</g>
</g>
</g>
</svg>
