<svg width="17" height="17" viewBox="0 0 17 17" fill="none" xmlns="http://www.w3.org/2000/svg">
<g id="Group 9949">
<g id="Group 9948">
<g id="Group 9933">
<path id="Vector" d="M12.1909 16.2696C12.8159 16.2696 13.4278 16.09 13.9536 15.7519C14.4794 15.4139 14.8968 14.9317 15.1561 14.363C15.4155 13.7943 15.5058 13.163 15.4162 12.5443C15.3267 11.9257 15.0611 11.3459 14.6512 10.8741C14.2413 10.4022 13.7043 10.0582 13.1042 9.88307C12.5042 9.70795 11.8665 9.70911 11.2671 9.88641C10.6677 10.0637 10.1319 10.4097 9.72372 10.883C9.3155 11.3564 9.05204 11.9371 8.96477 12.5561C7.04305 11.5613 5.48622 9.98277 4.51803 8.0475C4.97538 8.00467 5.41849 7.86548 5.8182 7.63911C6.2179 7.41273 6.56515 7.1043 6.8371 6.73409C7.3114 6.13697 7.55142 5.38726 7.51211 4.62571C7.4728 3.86416 7.15686 3.14314 6.6236 2.59803C6.49861 2.46538 6.36158 2.34461 6.21427 2.23729C5.7332 1.8612 5.15613 1.62785 4.54886 1.56385C3.9416 1.49985 3.32856 1.60777 2.77966 1.87531C2.23076 2.14286 1.76808 2.55925 1.44438 3.07702C1.12068 3.59479 0.948975 4.1931 0.948853 4.80374C0.948825 4.91538 0.954723 5.02695 0.966522 5.13798C0.930856 5.4664 0.95127 5.7985 1.02689 6.12009C1.14027 6.59568 1.29193 7.06245 1.44948 7.52626C1.75299 8.49053 2.1912 9.4071 2.75111 10.2488C3.29857 11.0241 3.91137 11.7512 4.58281 12.4221C5.40582 13.2799 6.32933 14.0354 7.33331 14.672C8.38905 15.3184 9.55227 15.7027 10.7302 16.0546C10.9896 16.1303 11.256 16.1796 11.5253 16.2018C11.7443 16.2469 11.9673 16.2696 12.1909 16.2696Z" fill="white"/>
</g>
</g>
<path id="Vector 196" d="M9.84827 4.36475C10.5481 4.48376 12.0738 5.16269 12.5777 6.92627" stroke="white" stroke-width="1.7" stroke-linecap="round"/>
<path id="Vector 197" d="M10.0748 1.5459C11.6005 1.63692 14.8114 2.79735 15.4497 6.71087" stroke="white" stroke-width="1.7" stroke-linecap="round"/>
</g>
</svg>
