<svg width="102" height="21" viewBox="0 0 102 21" fill="none" xmlns="http://www.w3.org/2000/svg">
<g id="Group 632304">
<path id="Star 1" d="M8.93516 2.89241C9.28061 2.08183 10.4296 2.08183 10.775 2.89241L12.2675 6.39441C12.4121 6.73361 12.7316 6.96574 13.0989 6.99841L16.8907 7.3357C17.7683 7.41377 18.1234 8.50649 17.4592 9.08552L14.5899 11.5872C14.3119 11.8295 14.1899 12.2051 14.2723 12.5645L15.1233 16.2749C15.3202 17.1337 14.3907 17.8091 13.6348 17.3564L10.3689 15.4005C10.0526 15.211 9.65763 15.211 9.3413 15.4005L6.0754 17.3564C5.31948 17.8091 4.38995 17.1337 4.58692 16.2749L5.43787 12.5645C5.5203 12.2051 5.39826 11.8295 5.12033 11.5872L2.25094 9.08552C1.58679 8.50649 1.94184 7.41377 2.81949 7.3357L6.61131 6.99841C6.97858 6.96574 7.29808 6.73361 7.44264 6.39441L8.93516 2.89241Z" fill="#DABB4A"/>
<path id="Star 2" d="M29.4833 2.89217C29.8287 2.08159 30.9777 2.08159 31.3231 2.89216L32.8156 6.39417C32.9602 6.73337 33.2797 6.9655 33.647 6.99817L37.4388 7.33545C38.3164 7.41352 38.6715 8.50624 38.0073 9.08528L35.138 11.5869C34.86 11.8292 34.738 12.2048 34.8204 12.5642L35.6714 16.2747C35.8683 17.1335 34.9388 17.8088 34.1829 17.3561L30.917 15.4002C30.6006 15.2108 30.2057 15.2108 29.8894 15.4002L26.6235 17.3561C25.8676 17.8088 24.938 17.1335 25.135 16.2747L25.986 12.5642C26.0684 12.2048 25.9464 11.8292 25.6684 11.5869L22.799 9.08528C22.1349 8.50624 22.4899 7.41352 23.3676 7.33545L27.1594 6.99817C27.5267 6.9655 27.8462 6.73337 27.9907 6.39417L29.4833 2.89217Z" fill="#DABB4A"/>
<path id="Star 3" d="M50.0316 2.89217C50.3771 2.08159 51.526 2.08159 51.8715 2.89216L53.364 6.39417C53.5085 6.73337 53.828 6.9655 54.1953 6.99817L57.9871 7.33545C58.8648 7.41352 59.2198 8.50624 58.5557 9.08528L55.6863 11.5869C55.4084 11.8292 55.2863 12.2048 55.3687 12.5642L56.2197 16.2747C56.4167 17.1335 55.4871 17.8088 54.7312 17.3561L51.4653 15.4002C51.149 15.2108 50.7541 15.2108 50.4377 15.4002L47.1718 17.3561C46.4159 17.8088 45.4864 17.1335 45.6834 16.2747L46.5343 12.5642C46.6167 12.2048 46.4947 11.8292 46.2168 11.5869L43.3474 9.08528C42.6832 8.50624 43.0383 7.41352 43.9159 7.33545L47.7077 6.99817C48.075 6.9655 48.3945 6.73337 48.5391 6.39417L50.0316 2.89217Z" fill="#DABB4A"/>
<path id="Star 4" d="M70.5797 2.89217C70.9251 2.08159 72.0741 2.08159 72.4196 2.89216L73.9121 6.39417C74.0566 6.73337 74.3761 6.9655 74.7434 6.99817L78.5352 7.33545C79.4129 7.41352 79.7679 8.50624 79.1038 9.08528L76.2344 11.5869C75.9565 11.8292 75.8344 12.2048 75.9168 12.5642L76.7678 16.2747C76.9648 17.1335 76.0352 17.8088 75.2793 17.3561L72.0134 15.4002C71.6971 15.2108 71.3022 15.2108 70.9858 15.4002L67.7199 17.3561C66.964 17.8088 66.0345 17.1335 66.2314 16.2747L67.0824 12.5642C67.1648 12.2048 67.0428 11.8292 66.7649 11.5869L63.8955 9.08528C63.2313 8.50624 63.5864 7.41352 64.464 7.33545L68.2558 6.99817C68.6231 6.9655 68.9426 6.73337 69.0872 6.39417L70.5797 2.89217Z" fill="#DABB4A"/>
<path id="Star 5" d="M91.1278 2.89217C91.4732 2.08159 92.6222 2.08159 92.9677 2.89216L94.4602 6.39417C94.6047 6.73337 94.9242 6.9655 95.2915 6.99817L99.0833 7.33545C99.961 7.41352 100.316 8.50624 99.6519 9.08528L96.7825 11.5869C96.5046 11.8292 96.3825 12.2048 96.4649 12.5642L97.3159 16.2747C97.5129 17.1335 96.5833 17.8088 95.8274 17.3561L92.5615 15.4002C92.2452 15.2108 91.8503 15.2108 91.5339 15.4002L88.268 17.3561C87.5121 17.8088 86.5826 17.1335 86.7795 16.2747L87.6305 12.5642C87.7129 12.2048 87.5909 11.8292 87.313 11.5869L84.4436 9.08528C83.7794 8.50624 84.1345 7.41352 85.0121 7.33545L88.8039 6.99817C89.1712 6.9655 89.4907 6.73337 89.6353 6.39417L91.1278 2.89217Z" fill="#DABB4A"/>
</g>
</svg>
