<svg width="66" height="58" viewBox="0 0 66 58" fill="none" xmlns="http://www.w3.org/2000/svg">
<g id="Frame" clip-path="url(#clip0_2005_269)">
<g id="Group">
<path id="Vector" d="M31.1056 27.2071C32.6747 26.6021 34.1636 26.2018 35.492 25.4989C40.7074 22.7497 43.5782 16.8154 42.4727 11.317C41.2156 5.11572 36.6064 0.560418 30.4816 0.240123C24.3924 -0.071274 18.2587 -0.0979652 12.1695 0.257918C5.27801 0.658286 -0.0176849 6.77947 0.000144958 13.6391C0.0179749 20.4454 5.3315 26.353 12.1428 26.9758C14.648 27.2071 17.1799 27.0559 19.6941 27.1627C20.2379 27.1893 20.8887 27.4385 21.2721 27.8121C23.3404 29.7873 25.3642 31.8158 27.3523 33.8622C28.0834 34.6184 28.8857 35.0544 29.8932 34.6451C30.9184 34.2269 31.1146 33.2838 31.1056 32.2696C31.0878 30.5702 31.1056 28.8531 31.1056 27.2071ZM19.489 13.6213C19.4801 12.5982 20.3092 11.7173 21.3345 11.6729C22.3419 11.6284 23.3493 12.5804 23.3672 13.5857C23.385 14.5822 22.3865 15.5609 21.3701 15.5342C20.3538 15.5164 19.4979 14.6445 19.489 13.6213ZM11.7059 13.6302C11.6792 12.6871 12.5975 11.7262 13.5692 11.6729C14.6212 11.6106 15.5574 12.5003 15.5752 13.5679C15.593 14.5911 14.7639 15.4808 13.7475 15.5342C12.749 15.5787 11.7327 14.6445 11.7059 13.6302ZM27.2632 13.5679C27.2721 12.5181 28.0923 11.6818 29.1175 11.6729C30.1517 11.6551 31.0967 12.607 31.07 13.6391C31.0522 14.6356 30.1606 15.5253 29.1621 15.5342C28.0923 15.5431 27.2453 14.6712 27.2632 13.5679Z" fill="#E4B5BF"/>
<path id="Vector_2" d="M19.489 13.6213C19.4979 14.6445 20.3538 15.5164 21.3701 15.5342C22.3775 15.552 23.376 14.5822 23.3671 13.5858C23.3493 12.5804 22.3419 11.6284 21.3344 11.6729C20.3092 11.7174 19.4801 12.5982 19.489 13.6213Z" fill="#856068"/>
<path id="Vector_3" d="M11.7059 13.6302C11.7327 14.6356 12.7401 15.5787 13.7475 15.5253C14.7639 15.4719 15.593 14.5911 15.5752 13.559C15.5573 12.4914 14.6212 11.6017 13.5692 11.664C12.5974 11.7263 11.6881 12.6871 11.7059 13.6302Z" fill="#856068"/>
<path id="Vector_4" d="M27.2632 13.5679C27.2543 14.6712 28.1012 15.552 29.1621 15.5342C30.1606 15.5164 31.0522 14.6356 31.07 13.6391C31.0967 12.607 30.1517 11.6551 29.1175 11.6729C28.0834 11.6818 27.2721 12.5181 27.2632 13.5679Z" fill="#856068"/>
</g>
<g id="Group 10413">
<path id="Vector_5" d="M56.3805 8.91475C55.1591 8.91475 53.9377 8.91475 52.7163 8.91475C51.5573 8.92364 50.7817 9.43078 50.4073 10.5696C49.2037 14.2085 47.9823 17.8474 46.7431 21.4685C46.4489 22.3315 46.538 23.0789 47.064 23.8351C47.9555 25.1163 48.7758 26.4509 49.6851 27.7143C50.0685 28.257 50.0685 28.6662 49.7386 29.2268C46.6004 34.565 42.3746 38.8 36.9986 41.8962C36.4548 42.2076 36.0714 42.172 35.5722 41.8161C34.2616 40.8908 32.96 39.9566 31.5603 39.1915C30.9719 38.8712 30.0804 38.711 29.4563 38.9068C25.7475 40.0456 22.0833 41.3179 18.4013 42.5279C17.5276 42.8126 16.8144 43.3464 16.7966 44.2539C16.752 47.181 16.5826 50.1438 16.9035 53.0353C17.278 56.3272 19.8902 58.1155 23.3582 57.991C30.856 57.7241 37.7386 55.4998 44.0328 51.4961C54.0447 45.1258 61.07 36.3978 64.538 24.974C65.5187 21.7265 66.0001 18.3723 66.0001 14.9737C66.0001 11.5127 63.5306 9.00372 60.0447 8.92364C58.8233 8.89695 57.6019 8.91475 56.3805 8.91475Z" fill="#AEB0AF"/>
<path id="Vector 410" d="M63.709 18.0735C62.6399 23.0101 58.9548 34.3359 52.7668 40.1465" stroke="white" stroke-width="0.7" stroke-linecap="round"/>
<path id="Vector 409" d="M19.193 44.4263C18.785 47.4976 18.7936 53.9496 22.0926 55.1868" stroke="white" stroke-width="0.7" stroke-linecap="round"/>
</g>
</g>
<defs>
<clipPath id="clip0_2005_269">
<rect width="66" height="58" fill="white" transform="matrix(-1 0 0 1 66 0)"/>
</clipPath>
</defs>
</svg>
