<svg width="18" height="18" viewBox="0 0 18 18" fill="none" xmlns="http://www.w3.org/2000/svg">
<path id="Vector" d="M9.03284 0.273438C13.7262 0.273438 17.5308 4.07796 17.5308 8.77136C17.5308 13.4648 13.7262 17.2693 9.03284 17.2693C4.33943 17.2693 0.534912 13.4648 0.534912 8.77136C0.534912 4.07796 4.33943 0.273438 9.03284 0.273438ZM9.03284 3.67261C8.80746 3.67261 8.59131 3.76214 8.43194 3.92151C8.27258 4.08087 8.18304 4.29702 8.18304 4.5224V8.77136C8.18309 8.99672 8.27266 9.21284 8.43203 9.37217L10.9814 11.9215C11.1417 12.0763 11.3563 12.162 11.5792 12.1601C11.802 12.1581 12.0151 12.0687 12.1727 11.9112C12.3302 11.7536 12.4196 11.5405 12.4215 11.3177C12.4235 11.0949 12.3378 10.8802 12.183 10.7199L9.88263 8.41955V4.5224C9.88263 4.29702 9.7931 4.08087 9.63373 3.92151C9.47436 3.76214 9.25822 3.67261 9.03284 3.67261Z" fill="white"/>
</svg>
