<svg width="50" height="48" viewBox="0 0 50 48" fill="none" xmlns="http://www.w3.org/2000/svg">
<g id="Group 9787">
<rect id="Rectangle 599" x="0.685181" y="-0.00830078" width="48.6776" height="47.5435" rx="23.7717" fill="#51CB5F"/>
<g id="Group 954">
<g id="Group 9956">
<path id="Vector" d="M20.6676 31.1275C22.1141 31.9625 23.7871 32.4369 25.5718 32.4369C31.0028 32.4369 35.4168 28.02 35.4168 22.5898C35.4168 17.1597 31.0028 12.7428 25.5718 12.7428H25.5675C20.1367 12.7428 15.7226 17.1585 15.7226 22.5898C15.7226 24.5101 16.2752 26.3079 17.2328 27.8251L16.353 30.4476L15.5792 32.7541L17.8966 32.0133L20.6676 31.1275Z" fill="#51CB5F" stroke="white" stroke-width="2.46469"/>
<g id="Group 9955">
<path id="Vector_2" d="M29.8621 26.8088L29.789 26.8819C29.4246 27.2492 28.9363 27.4674 28.4195 27.4936H28.0589C26.1508 27.4936 24.6169 26.7814 22.9965 25.1654C21.2754 23.4443 20.5816 21.8238 20.6775 19.7422H20.6774C20.7036 19.2255 20.9218 18.7371 21.2891 18.3727L21.3621 18.2996C21.8243 17.8356 22.4775 17.6155 23.1262 17.7053C23.7749 17.7949 24.3439 18.1841 24.6627 18.7561L24.7632 18.9387H24.7631C24.8898 19.1697 24.9384 19.4356 24.9013 19.6965C24.8643 19.9574 24.7437 20.1993 24.5576 20.3859L23.9459 20.9976C24.2991 21.6773 24.7617 22.2942 25.3154 22.8236C25.8448 23.3773 26.4617 23.8399 27.1414 24.1931L27.7485 23.5904C27.9395 23.4028 28.1869 23.2833 28.4526 23.2503C28.7183 23.2173 28.9874 23.2726 29.2185 23.4078L29.4011 23.5083C29.9732 23.8272 30.3623 24.396 30.452 25.0448C30.5417 25.6935 30.3216 26.3466 29.8576 26.8087L29.8621 26.8088Z" fill="white"/>
</g>
</g>
</g>
</g>
</svg>
