<svg width="109" height="107" viewBox="0 0 109 107" fill="none" xmlns="http://www.w3.org/2000/svg">
<g id="call_9vqlhoh4fj85 1">
<g id="Layer_4">
<g id="Group">
<g id="Group_2">
<g id="Group_3">
<path id="Vector" d="M24.9923 52.8313L30.7298 43.636C32.9236 40.125 32.4173 35.4438 29.3798 32.4344L22.4611 25.5797C18.9173 22.0688 13.1798 22.0688 9.46734 25.5797L5.07984 30.0938C2.04234 33.1032 1.02984 37.45 2.54859 41.2954C12.8423 71.0547 36.4673 94.2938 66.5048 104.659C70.3861 105.997 74.9423 104.994 77.8111 102.152L82.3673 97.6376C85.9111 94.1266 85.9111 88.4422 82.3673 84.7641L75.4486 77.9094C72.4111 74.9 67.6861 74.3985 64.1423 76.5719L54.8611 82.2563C43.3861 74.0641 33.2611 64.0329 24.9923 52.8313Z" fill="#B0DBE7"/>
</g>
<g id="Group_4">
<path id="Vector_2" d="M9.63606 25.5797L8.96106 26.2485L29.2111 46.311L30.8986 43.636C33.0923 40.125 32.5861 35.4438 29.5486 32.4344L22.6298 25.5797C18.9173 22.0688 13.1798 22.0688 9.63606 25.5797Z" fill="#8AC1D1"/>
</g>
<g id="Group_5">
<path id="Vector_3" d="M82.1986 84.5969L75.2798 77.7422C72.2423 74.7328 67.5173 74.2313 63.9736 76.4047L61.2736 78.0766L81.5236 98.1391L82.1986 97.4703C85.7423 93.9594 85.7423 88.275 82.1986 84.5969Z" fill="#8AC1D1"/>
</g>
</g>
<g id="Group_6">
<path id="Vector_4" d="M99.5799 50.6579C98.7361 49.8219 98.3986 48.8188 98.3986 47.8157C98.3986 37.7844 94.3486 28.2547 87.0924 21.0657C79.8361 13.8766 70.2174 9.86411 60.0924 9.86411C59.0799 9.86411 58.0674 9.52974 57.2236 8.6938C56.3799 7.85786 56.0424 6.85474 56.0424 5.85161C56.0424 3.67817 57.8986 1.83911 60.0924 1.83911C72.4111 1.83911 84.0549 6.68755 92.8299 15.3813C101.605 24.075 106.499 35.611 106.499 47.8157C106.499 49.9891 104.642 51.8282 102.449 51.8282C101.436 51.8282 100.255 51.4938 99.5799 50.6579Z" fill="#A4727D"/>
</g>
<g id="Group_7">
<path id="Vector_5" d="M83.5486 54.0017C82.7048 53.1657 82.3673 52.1626 82.3673 51.1595C82.3673 44.472 79.6673 37.9517 74.9423 33.2704C70.2173 28.5892 63.6361 25.9142 56.8861 25.9142C55.8736 25.9142 54.8611 25.5798 54.0173 24.7438C53.1736 23.9079 52.8361 22.9048 52.8361 21.9017C52.8361 19.7282 54.6923 17.8892 56.8861 17.8892C65.8298 17.8892 74.2673 21.4001 80.6798 27.7532C87.0923 34.1063 90.6361 42.4657 90.6361 51.3267C90.6361 53.5001 88.7798 55.3392 86.5861 55.3392C85.4048 55.172 84.3923 54.6704 83.5486 54.0017Z" fill="#C299A2"/>
</g>
<g id="Group_8">
<path id="Vector_6" d="M67.5173 57.1782C66.6736 56.3422 66.3361 55.3391 66.3361 54.336C66.3361 50.9922 64.9861 47.6485 62.6236 45.3079C60.2611 42.9672 56.8861 41.6297 53.5111 41.6297C52.4986 41.6297 51.4861 41.2954 50.6423 40.4594C49.7986 39.6235 49.4611 38.6204 49.4611 37.6172C49.4611 36.6141 49.7986 35.611 50.6423 34.775C51.4861 33.9391 52.4986 33.6047 53.5111 33.6047C59.0798 33.6047 64.4798 35.7782 68.3611 39.6235C72.4111 43.636 74.4361 48.8188 74.4361 54.336C74.4361 55.3391 74.0986 56.3422 73.2548 57.1782C72.4111 58.0141 71.3986 58.3485 70.3861 58.3485C69.3736 58.3485 68.3611 58.0141 67.5173 57.1782Z" fill="#E4B5BF"/>
</g>
</g>
</g>
</g>
</svg>
