<svg width="122" height="108" viewBox="0 0 122 108" fill="none" xmlns="http://www.w3.org/2000/svg">
<g id="delivery_aaycveygzxba 1" clip-path="url(#clip0_2005_491)">
<g id="Shipped">
<path id="Vector" d="M119.157 82.5073H108.303C107.894 82.4869 107.486 82.5664 107.115 82.7387C106.743 82.911 106.419 83.1711 106.171 83.4964C105.923 83.8218 105.757 84.2027 105.689 84.6062C105.62 85.0098 105.651 85.424 105.779 85.8129C106.244 87.0752 106.499 88.4049 106.536 89.7495C106.529 91.1852 106.281 92.6095 105.804 93.9636C105.671 94.3432 105.631 94.749 105.687 95.1472C105.743 95.5453 105.893 95.9244 106.125 96.2528C106.357 96.5811 106.665 96.8493 107.022 97.0349C107.378 97.2205 107.774 97.3182 108.177 97.3198H119.157C119.827 97.3198 120.469 97.0539 120.942 96.5807C121.415 96.1074 121.681 95.4656 121.681 94.7963V85.0307C121.681 84.3614 121.415 83.7196 120.942 83.2464C120.469 82.7731 119.827 82.5073 119.157 82.5073Z" fill="#CD97A3"/>
<path id="Vector_2" d="M82.0254 93.9637C81.548 92.6096 81.3005 91.1852 81.2934 89.7495C81.2893 88.4119 81.5025 87.0824 81.9244 85.813C82.048 85.4343 82.08 85.0318 82.0181 84.6384C81.9561 84.2449 81.8019 83.8717 81.568 83.5493C81.3341 83.2269 81.0272 82.9644 80.6724 82.7833C80.3175 82.6022 79.9248 82.5076 79.5264 82.5073H47.7208C47.3223 82.5076 46.9296 82.6022 46.5748 82.7833C46.22 82.9644 45.913 83.2269 45.6791 83.5493C45.4452 83.8717 45.291 84.2449 45.2291 84.6384C45.1671 85.0318 45.1992 85.4343 45.3227 85.813C45.7447 87.0824 45.9578 88.4119 45.9538 89.7495C45.9466 91.1852 45.6992 92.6096 45.2217 93.9637C45.089 94.3432 45.0489 94.749 45.1048 95.1472C45.1608 95.5454 45.311 95.9245 45.5432 96.2528C45.7754 96.5812 46.0826 96.8494 46.4395 97.035C46.7963 97.2205 47.1923 97.3182 47.5945 97.3198H79.6526C80.0548 97.3182 80.4509 97.2205 80.8077 97.035C81.1645 96.8494 81.4718 96.5812 81.7039 96.2528C81.9361 95.9245 82.0864 95.5454 82.1423 95.1472C82.1982 94.749 82.1582 94.3432 82.0254 93.9637Z" fill="#CD97A3"/>
<path id="Vector_3" d="M113.301 44.5553C111.656 44.5886 110.029 44.2197 108.559 43.4809C107.09 42.7421 105.823 41.6556 104.87 40.3159L99.7202 32.9728C98.2978 30.9576 96.4044 29.3202 94.2048 28.2032C92.0051 27.0861 89.5658 26.5232 87.0989 26.5633H68.6718C68.0024 26.5633 67.3603 26.8291 66.8869 27.3024C66.4135 27.7756 66.1476 28.4175 66.1476 29.0867V85.031C66.1476 85.7003 66.4135 86.3421 66.8869 86.8153C67.3603 87.2886 68.0024 87.5544 68.6718 87.5544H79.5261C80.0585 87.554 80.577 87.3854 81.0077 87.0727C81.4384 86.76 81.7592 86.3192 81.9242 85.8133C82.7542 83.289 84.3602 81.0911 86.5132 79.5329C88.6662 77.9747 91.2564 77.1358 93.9144 77.1358C96.5724 77.1358 99.1626 77.9747 101.316 79.5329C103.469 81.0911 105.075 83.289 105.905 85.8133C106.076 86.3403 106.416 86.7963 106.872 87.111C107.328 87.4257 107.875 87.5815 108.429 87.5544H119.157C119.826 87.5544 120.469 87.2886 120.942 86.8153C121.415 86.3421 121.681 85.7003 121.681 85.031V52.6302C121.635 50.4505 120.727 48.3778 119.157 46.8647C117.587 45.3517 115.481 44.5215 113.301 44.5553Z" fill="#E4B5BF"/>
<path id="Vector_4" d="M21.4431 93.9636C20.9656 92.6095 20.7182 91.1852 20.711 89.7495C20.707 88.4118 20.9201 87.0824 21.3421 85.8129C21.4695 85.424 21.5004 85.0098 21.432 84.6062C21.3637 84.2027 21.1981 83.8218 20.9497 83.4964C20.7012 83.1711 20.3773 82.911 20.0059 82.7387C19.6345 82.5664 19.2268 82.4869 18.8178 82.5073H3.04122C2.70299 82.5053 2.36782 82.5713 2.05561 82.7013C1.74339 82.8314 1.46051 83.0228 1.22375 83.2643C0.988215 83.5081 0.804238 83.7969 0.682803 84.1134C0.561368 84.4299 0.504965 84.7676 0.516961 85.1064C0.621875 88.3822 1.99779 91.4886 4.35346 93.7682C6.70914 96.0477 9.85969 97.3214 13.1383 97.3198H19.0703C19.4725 97.3182 19.8685 97.2205 20.2253 97.0349C20.5821 96.8493 20.8894 96.5811 21.1216 96.2528C21.3537 95.9244 21.504 95.5454 21.56 95.1472C21.6159 94.749 21.5758 94.3432 21.4431 93.9636Z" fill="#CD97A3"/>
<path id="Vector_5" d="M58.5749 14.0471H13.1383C9.79093 14.0471 6.58066 15.3764 4.21371 17.7426C1.84676 20.1088 0.517018 23.318 0.517018 26.6642V84.703C0.478214 85.013 0.478214 85.3266 0.517018 85.6366C0.655223 86.1965 0.981094 86.6922 1.44038 87.0411C1.89966 87.3901 2.46465 87.5712 3.04128 87.5544H18.9441C19.4977 87.5815 20.0448 87.4257 20.5011 87.111C20.9573 86.7963 21.2972 86.3403 21.4684 85.8133C22.098 83.941 23.1519 82.2395 24.5478 80.8416C25.9438 79.4436 27.644 78.3871 29.5158 77.7544C31.3876 77.1217 33.3803 76.93 35.3385 77.1943C37.2966 77.4585 39.1672 78.1715 40.8042 79.2776C43.0254 80.9348 44.6255 83.2897 45.3478 85.9647C45.5284 86.4477 45.8525 86.8638 46.2768 87.157C46.701 87.4503 47.2049 87.6066 47.7206 87.6049H71.1962V26.6642C71.1962 25.0073 70.8698 23.3667 70.2355 21.8359C69.6012 20.3051 68.6715 18.9142 67.4995 17.7426C66.3276 16.571 64.9362 15.6416 63.4049 15.0075C61.8736 14.3735 60.2324 14.0471 58.5749 14.0471Z" fill="#F0E6C3"/>
<path id="Vector_6" d="M33.3323 107.414C43.091 107.414 51.0021 99.5054 51.0021 89.7499C51.0021 79.9944 43.091 72.0859 33.3323 72.0859C23.5735 72.0859 15.6625 79.9944 15.6625 89.7499C15.6625 99.5054 23.5735 107.414 33.3323 107.414Z" fill="#856068"/>
<path id="Vector_7" d="M33.3323 97.32C37.5146 97.32 40.9051 93.9307 40.9051 89.7497C40.9051 85.5688 37.5146 82.1794 33.3323 82.1794C29.15 82.1794 25.7595 85.5688 25.7595 89.7497C25.7595 93.9307 29.15 97.32 33.3323 97.32Z" fill="#E0E0E0"/>
<path id="Vector_8" d="M93.9144 107.414C103.673 107.414 111.584 99.5054 111.584 89.7499C111.584 79.9944 103.673 72.0859 93.9144 72.0859C84.1557 72.0859 76.2446 79.9944 76.2446 89.7499C76.2446 99.5054 84.1557 107.414 93.9144 107.414Z" fill="#856068"/>
<path id="Vector_9" d="M93.9144 97.32C98.0968 97.32 101.487 93.9307 101.487 89.7497C101.487 85.5688 98.0968 82.1794 93.9144 82.1794C89.7321 82.1794 86.3417 85.5688 86.3417 89.7497C86.3417 93.9307 89.7321 97.32 93.9144 97.32Z" fill="#E0E0E0"/>
<path id="Vector_10" d="M94.8232 59.4686H93.561C88.9705 59.4619 84.5699 57.636 81.3239 54.3911C78.0779 51.1461 76.2513 46.747 76.2446 42.1579V39.2812C76.2446 38.612 76.5106 37.9701 76.984 37.4969C77.4574 37.0237 78.0994 36.7578 78.7689 36.7578C79.4384 36.7578 80.0804 37.0237 80.5538 37.4969C81.0272 37.9701 81.2931 38.612 81.2931 39.2812V42.1579C81.2998 45.4085 82.5945 48.5239 84.8937 50.8224C87.1929 53.1209 90.3094 54.4151 93.561 54.4218H94.8232C95.4926 54.4218 96.1347 54.6876 96.6081 55.1609C97.0815 55.6341 97.3474 56.2759 97.3474 56.9452C97.3474 57.6145 97.0815 58.2563 96.6081 58.7295C96.1347 59.2028 95.4926 59.4686 94.8232 59.4686Z" fill="#F5F5F5"/>
<path id="Vector_11" d="M32.5007 62.0047C31.9469 62.0024 31.4161 61.7826 31.0229 61.3927L19.5809 49.9545C19.1877 49.5591 18.967 49.0242 18.967 48.4667C18.967 47.9091 19.1877 47.3743 19.5809 46.9788C19.7772 46.781 20.0107 46.624 20.2679 46.5169C20.5252 46.4098 20.8011 46.3546 21.0798 46.3546C21.3585 46.3546 21.6344 46.4098 21.8917 46.5169C22.1489 46.624 22.3824 46.781 22.5786 46.9788L32.5007 56.8976L49.1359 40.2679C49.5334 39.8705 50.0726 39.6472 50.6348 39.6472C51.197 39.6472 51.7361 39.8705 52.1336 40.2679C52.5312 40.6653 52.7545 41.2042 52.7545 41.7662C52.7545 42.3282 52.5312 42.8672 52.1336 43.2646L33.9995 61.3927C33.8023 61.5883 33.5683 61.743 33.3111 61.8481C33.0539 61.9531 32.7785 62.0063 32.5007 62.0047Z" fill="#D9C57F"/>
</g>
</g>
<defs>
<clipPath id="clip0_2005_491">
<rect width="121" height="108" fill="white" transform="translate(0.540283)"/>
</clipPath>
</defs>
</svg>
