<svg width="124" height="120" viewBox="0 0 124 120" fill="none" xmlns="http://www.w3.org/2000/svg">
<g id="time_eywouoifo45h 1" clip-path="url(#clip0_2005_403)">
<path id="Vector" d="M103.147 68.9478C103.147 97.2343 80.1888 120.165 51.8674 120.165C23.5469 120.165 0.587646 97.2343 0.587646 68.9478C0.587646 40.6622 23.5469 17.7312 51.8674 17.7312C80.1888 17.7312 103.147 40.6622 103.147 68.9478Z" fill="#E4B5BF"/>
<path id="Vector_2" d="M90.8521 68.9476C90.8521 90.4521 73.3985 107.884 51.8674 107.884C30.3374 107.884 12.8828 90.4521 12.8828 68.9476C12.8828 47.444 30.3374 30.011 51.8674 30.011C73.3985 30.011 90.8521 47.444 90.8521 68.9476Z" fill="#F0F9FB"/>
<path id="Vector_3" d="M116.521 72.5345C115.497 72.5345 114.665 71.7041 114.665 70.6797V68.9476C114.665 34.3637 86.494 6.22709 51.8674 6.22709C50.8427 6.22709 50.0112 5.39761 50.0112 4.37319C50.0112 3.34876 50.8417 2.51929 51.8674 2.51929C88.6271 2.51929 118.378 32.2295 118.378 68.9476V70.6797C118.378 71.7041 117.547 72.5345 116.521 72.5345Z" fill="#856068"/>
<g id="Group">
<path id="Vector_4" d="M51.8674 28.1582C50.8427 28.1582 50.0112 28.9877 50.0112 30.0121V33.8746C50.0112 34.899 50.8427 35.7285 51.8674 35.7285C52.8931 35.7285 53.7236 34.899 53.7236 33.8746V30.0121C53.7236 28.9877 52.8931 28.1582 51.8674 28.1582Z" fill="#79BCCF"/>
<path id="Vector_5" d="M51.8674 102.168C50.8427 102.168 50.0112 102.999 50.0112 104.022V107.886C50.0112 108.909 50.8427 109.739 51.8674 109.739C52.8931 109.739 53.7236 108.909 53.7236 107.886V104.022C53.7236 102.999 52.8931 102.168 51.8674 102.168Z" fill="#79BCCF"/>
<path id="Vector_6" d="M32.7012 39.4999C33.2136 40.3866 34.3491 40.6902 35.2368 40.1785C36.1246 39.6668 36.4296 38.5327 35.9163 37.646L33.9831 34.3009C33.4707 33.4143 32.3353 33.1106 31.4475 33.6224C30.5598 34.1341 30.2548 35.2682 30.7681 36.1548L32.7012 39.4999Z" fill="#79BCCF"/>
<path id="Vector_7" d="M71.0337 98.3957C70.5214 97.5091 69.3859 97.2063 68.4981 97.7181C67.6104 98.2298 67.3063 99.3639 67.8187 100.251L69.7519 103.595C70.2642 104.481 71.3997 104.786 72.2884 104.273C73.1761 103.762 73.4802 102.627 72.9669 101.741L71.0337 98.3957Z" fill="#79BCCF"/>
<path id="Vector_8" d="M17.1781 51.0856L20.5273 53.0173C21.4159 53.5291 22.5505 53.2244 23.0629 52.3387C23.5752 51.4521 23.2712 50.318 22.3835 49.8063L19.0342 47.8746C18.1465 47.3628 17.011 47.6665 16.4986 48.5531C15.9863 49.4398 16.2903 50.5739 17.1781 51.0856Z" fill="#79BCCF"/>
<path id="Vector_9" d="M86.557 86.8111L83.2078 84.8794C82.3201 84.3677 81.1846 84.6714 80.6722 85.558C80.1599 86.4447 80.4639 87.5788 81.3516 88.0905L84.7009 90.0222C85.5895 90.5339 86.7241 90.2303 87.2365 89.3436C87.7498 88.457 87.4457 87.3229 86.557 86.8111Z" fill="#79BCCF"/>
<path id="Vector_10" d="M18.6071 68.9479C18.6071 67.9244 17.7757 67.094 16.75 67.094H12.8828C11.858 67.094 11.0266 67.9244 11.0266 68.9479C11.0266 69.9723 11.858 70.8018 12.8828 70.8018H16.75C17.7757 70.8018 18.6071 69.9723 18.6071 68.9479Z" fill="#79BCCF"/>
<path id="Vector_11" d="M90.852 67.094H86.9848C85.9591 67.094 85.1277 67.9244 85.1277 68.9479C85.1277 69.9723 85.9591 70.8018 86.9848 70.8018H90.852C91.8768 70.8018 92.7082 69.9723 92.7082 68.9479C92.7082 67.9244 91.8777 67.094 90.852 67.094Z" fill="#79BCCF"/>
<path id="Vector_12" d="M20.5273 84.8794L17.1781 86.8111C16.2903 87.3229 15.9863 88.457 16.4986 89.3436C16.8421 89.9388 17.4662 90.2706 18.108 90.2706C18.749 90.2706 18.7246 90.2012 22.3835 88.0905C23.2712 87.5788 23.5752 86.4447 23.0629 85.558C22.5505 84.6714 21.415 84.3677 20.5273 84.8794Z" fill="#79BCCF"/>
<path id="Vector_13" d="M83.2078 53.0173L86.557 51.0856C87.4448 50.5739 87.7498 49.4398 87.2365 48.5531C86.7241 47.6665 85.5886 47.3628 84.7009 47.8746L81.3516 49.8063C80.4639 50.318 80.1599 51.4521 80.6722 52.3387C81.1846 53.2254 82.3201 53.5291 83.2078 53.0173Z" fill="#79BCCF"/>
<path id="Vector_14" d="M35.2368 97.718C34.3491 97.2053 33.2136 97.509 32.7012 98.3956L30.7681 101.742C30.2548 102.628 30.5598 103.761 31.4475 104.274C32.3353 104.786 33.4707 104.482 33.9831 103.596L35.9163 100.25C36.4296 99.3638 36.1255 98.2297 35.2368 97.718Z" fill="#79BCCF"/>
<path id="Vector_15" d="M68.4981 40.1785C69.3868 40.6912 70.5214 40.3866 71.0337 39.4999L72.9669 36.1548C73.4802 35.2682 73.1752 34.1341 72.2884 33.6224C71.3997 33.1106 70.2642 33.4143 69.7519 34.3009L67.8187 37.646C67.3063 38.5336 67.6104 39.6668 68.4981 40.1785Z" fill="#79BCCF"/>
</g>
<path id="Vector_16" d="M51.8674 66.6018C50.8427 66.6018 50.0112 65.7713 50.0112 64.7479V40.7174C50.0112 39.693 50.8427 38.8635 51.8674 38.8635C52.8931 38.8635 53.7236 39.693 53.7236 40.7174V64.7479C53.7236 65.7713 52.8931 66.6018 51.8674 66.6018Z" fill="#856068"/>
<path id="Vector_17" d="M74.6549 65.3843H56.1296C56.8494 66.39 57.2764 67.6178 57.2764 68.9487C57.2764 70.2787 56.8494 71.5065 56.1296 72.5121H74.6549C76.6256 72.5121 78.2237 70.9169 78.2237 68.9487C78.2237 66.9804 76.6256 65.3843 74.6549 65.3843Z" fill="#856068"/>
<path id="Vector_18" d="M63.7505 72.5121C64.4093 71.4812 64.7969 70.2618 64.7969 68.9487C64.7969 67.6346 64.4083 66.4153 63.7505 65.3843H56.1296C56.8494 66.39 57.2764 67.6187 57.2764 68.9487C57.2764 70.2787 56.8494 71.5065 56.1296 72.5121H63.7505Z" fill="#856068"/>
<path id="Vector_19" d="M122.896 68.9478H110.147C109.612 68.9478 109.28 69.5298 109.554 69.99L115.928 80.6879C116.196 81.1368 116.847 81.1368 117.115 80.6879L123.489 69.99C123.763 69.5307 123.432 68.9478 122.896 68.9478Z" fill="#856068"/>
<path id="Vector_20" d="M116.732 69.7426C116.57 69.4717 116.62 69.1596 116.796 68.9478H110.147C109.612 68.9478 109.28 69.5298 109.554 69.99L115.928 80.6879C116.196 81.1368 116.847 81.1368 117.115 80.6879L120.184 75.5367L116.732 69.7426Z" fill="#856068"/>
<path id="Vector_21" d="M58.0196 68.9477C58.0196 72.3415 55.2654 75.0924 51.8674 75.0924C48.4703 75.0924 45.7161 72.3415 45.7161 68.9477C45.7161 65.5548 48.4703 62.804 51.8674 62.804C55.2654 62.804 58.0196 65.5548 58.0196 68.9477Z" fill="#79BCCF"/>
<path id="Vector_22" d="M53.1408 68.9477C53.1408 66.9476 54.098 65.1715 55.5798 64.0496C54.5484 63.2679 53.2628 62.804 51.8674 62.804C48.4703 62.804 45.7161 65.5548 45.7161 68.9477C45.7161 72.3415 48.4703 75.0924 51.8674 75.0924C53.2628 75.0924 54.5484 74.6275 55.5798 73.8468C54.098 72.7249 53.1408 70.9488 53.1408 68.9477Z" fill="#79BCCF"/>
<path id="Vector_23" d="M51.8674 109.738C29.3482 109.738 11.0266 91.4401 11.0266 68.9477C11.0266 46.4563 29.3482 28.1572 51.8674 28.1572C74.3875 28.1572 92.7082 46.4563 92.7082 68.9477C92.7082 91.4401 74.3875 109.738 51.8674 109.738ZM51.8674 31.866C31.3949 31.866 14.739 48.5005 14.739 68.9477C14.739 89.396 31.3949 106.03 51.8674 106.03C72.3399 106.03 88.9958 89.396 88.9958 68.9477C88.9958 48.5005 72.3399 31.866 51.8674 31.866Z" fill="#C299A2"/>
</g>
<defs>
<clipPath id="clip0_2005_403">
<rect width="123" height="120" fill="white" transform="translate(0.587646)"/>
</clipPath>
</defs>
</svg>
