<svg width="108" height="107" viewBox="0 0 108 107" fill="none" xmlns="http://www.w3.org/2000/svg">
<g id="measuring_xcl9idbbfu4g 1" clip-path="url(#clip0_2005_448)">
<path id="Vector" d="M25.2185 5.73223L4.20044 3.82129L6.11138 24.8393L34.772 53.4995L53.8784 34.393L25.2185 5.73223Z" fill="#B0DBE7"/>
<path id="Vector_2" d="M25.219 5.73248L4.20068 3.82153L44.3257 43.9465L53.8785 34.393L25.219 5.73248Z" fill="#B0DBE7"/>
<path id="Vector_3" d="M53.878 72.6036L88.27 106.996L107.377 87.889L72.9846 53.497L53.878 72.6036Z" fill="#B0DBE7"/>
<path id="Vector_4" d="M63.4311 63.0543L97.8231 97.4463L107.376 87.893L72.9844 53.501L63.4311 63.0543Z" fill="#B0DBE7"/>
<path id="Vector_5" d="M0.380439 87.8919L19.4871 106.999L107.378 19.1079L88.2711 0.0012786L0.380439 87.8919Z" fill="#BDBDBD"/>
<g id="Group">
<path id="Vector_6" d="M41.4577 46.8147L49.1003 54.4573L54.8323 48.7253L47.1896 41.0827L41.4577 46.8147Z" fill="#ACACAC"/>
<path id="Vector_7" d="M39.5462 64.0082L45.2794 58.2759L37.6362 50.6316L31.903 56.364L39.5462 64.0082Z" fill="#ACACAC"/>
<path id="Vector_8" d="M29.9928 73.5644L35.7247 67.8325L28.0821 60.1899L22.3502 65.9218L29.9928 73.5644Z" fill="#ACACAC"/>
<path id="Vector_9" d="M58.6553 44.9011L64.3872 39.1692L56.7446 31.5266L51.0127 37.2585L58.6553 44.9011Z" fill="#ACACAC"/>
<path id="Vector_10" d="M68.2105 35.3494L73.9424 29.6174L66.2998 21.9748L60.5678 27.7067L68.2105 35.3494Z" fill="#ACACAC"/>
</g>
<path id="Vector_11" d="M4.20044 3.82129L6.11138 24.8391L25.2179 5.73244L4.20044 3.82129Z" fill="#F0E6C3"/>
<g id="Group_2">
<path id="Vector_12" d="M94.9576 100.315L100.69 94.583L66.2976 60.191L60.5656 65.9229L94.9576 100.315Z" fill="#81C1D2"/>
<path id="Vector_13" d="M41.4583 46.8115L47.1902 41.0796L18.5303 12.4197L12.7983 18.1516L41.4583 46.8115Z" fill="#81C1D2"/>
<path id="Vector_14" d="M4.20068 3.82153L5.15615 14.3305L14.7096 4.77742L4.20068 3.82153Z" fill="#E4B5BF"/>
</g>
<path id="Vector_15" d="M107.378 19.1082L97.8243 9.55493L9.93369 97.4456L19.487 106.999L107.378 19.1082Z" fill="#ACACAC"/>
</g>
<defs>
<clipPath id="clip0_2005_448">
<rect width="107" height="107" fill="white" transform="translate(0.378906)"/>
</clipPath>
</defs>
</svg>
