<svg width="20" height="20" viewBox="0 0 20 20" fill="none" xmlns="http://www.w3.org/2000/svg">
<g id="Group 9949">
<g id="Group 9948">
<g id="Group 9933">
<path id="Vector" d="M14.2535 19.3477C15.0342 19.3478 15.7986 19.1234 16.4553 18.7011C17.112 18.2789 17.6334 17.6767 17.9574 16.9663C18.2813 16.2559 18.3941 15.4673 18.2822 14.6946C18.1704 13.9219 17.8387 13.1977 17.3267 12.6083C16.8146 12.0188 16.1438 11.5892 15.3944 11.3704C14.6449 11.1517 13.8483 11.1531 13.0996 11.3746C12.3509 11.5961 11.6817 12.0282 11.1718 12.6194C10.6619 13.2107 10.3328 13.9362 10.2238 14.7093C7.82339 13.4666 5.87877 11.495 4.6694 9.07764C5.24068 9.02413 5.79416 8.85028 6.29344 8.56752C6.79271 8.28475 7.22645 7.89949 7.56614 7.43707C8.15858 6.69121 8.45839 5.75475 8.40928 4.80351C8.36018 3.85226 7.96554 2.95165 7.29946 2.27076C7.14334 2.10505 6.97217 1.95421 6.78816 1.82015C6.18726 1.35038 5.46646 1.0589 4.70792 0.978962C3.94939 0.89902 3.18366 1.03383 2.49803 1.36801C1.8124 1.7022 1.23448 2.22231 0.830141 2.86906C0.425806 3.5158 0.211335 4.26314 0.211182 5.02588C0.211147 5.16534 0.218514 5.3047 0.233252 5.44338C0.188703 5.85361 0.214201 6.26843 0.308659 6.67012C0.450278 7.26418 0.639715 7.84721 0.83651 8.42656C1.21562 9.63102 1.76298 10.7759 2.46236 11.8272C3.14619 12.7957 3.91164 13.7039 4.75033 14.5419C5.77834 15.6134 6.93188 16.557 8.18595 17.3522C9.50466 18.1596 10.9576 18.6396 12.429 19.0792C12.753 19.1738 13.0858 19.2354 13.4222 19.2631C13.6957 19.3194 13.9742 19.3477 14.2535 19.3477Z" fill="#E4B5BF"/>
</g>
</g>
<path id="Vector 196" d="M11.3274 4.47778C12.2016 4.62645 14.1073 5.47449 14.7367 7.67736" stroke="#E4B5BF" stroke-width="1.7" stroke-linecap="round"/>
<path id="Vector 197" d="M11.6104 0.956787C13.5161 1.07049 17.5268 2.51997 18.324 7.4083" stroke="#E4B5BF" stroke-width="1.7" stroke-linecap="round"/>
</g>
</svg>
