<svg width="21" height="16" viewBox="0 0 21 16" fill="none" xmlns="http://www.w3.org/2000/svg">
<g id="Group">
<g id="Group_2">
<g id="Group_3">
<path id="Vector" d="M0.575519 1.67822C0.554117 1.82919 0.532715 1.98015 0.532715 2.13111V13.3275C0.532715 13.4533 0.554117 13.5791 0.575519 13.7049L6.61085 7.18835L0.575519 1.67822Z" fill="#E4B5BF"/>
<path id="Vector_2" d="M20.8252 1.67798L14.8113 7.16295L20.8466 13.6795C20.868 13.5537 20.868 13.4279 20.868 13.3021V2.13087C20.868 1.9799 20.8466 1.82894 20.8252 1.67798Z" fill="#E4B5BF"/>
<path id="Vector_3" d="M12.1322 9.60464C11.3189 10.3595 10.0776 10.3595 9.26434 9.60464L7.98023 8.44727L1.77368 15.1399C1.88069 15.1651 1.9877 15.1903 2.09471 15.1903H19.259C19.366 15.1903 19.473 15.1651 19.5801 15.1399L13.4163 8.44727L12.1322 9.60464Z" fill="#E4B5BF"/>
<path id="Vector_4" d="M11.0851 7.99355L19.5389 0.269301C19.4533 0.244141 19.3891 0.244141 19.3035 0.244141H2.11774C2.03214 0.244141 1.96793 0.244141 1.88232 0.269301L10.3361 7.99355C10.5501 8.19483 10.8497 8.19483 11.0851 7.99355Z" fill="#E4B5BF"/>
</g>
</g>
</g>
</svg>
