<svg width="20" height="21" viewBox="0 0 20 21" fill="none" xmlns="http://www.w3.org/2000/svg">
<path id="Vector" d="M10.1759 0.949463C15.5018 0.949463 19.8191 5.26672 19.8191 10.5927C19.8191 15.9186 15.5018 20.2358 10.1759 20.2358C4.84997 20.2358 0.532715 15.9186 0.532715 10.5927C0.532715 5.26672 4.84997 0.949463 10.1759 0.949463ZM10.1759 4.80674C9.92015 4.80674 9.67487 4.90834 9.49403 5.08918C9.31318 5.27003 9.21159 5.5153 9.21159 5.77106V10.5927C9.21164 10.8484 9.31327 11.0936 9.49413 11.2744L12.3871 14.1674C12.569 14.343 12.8125 14.4402 13.0654 14.438C13.3182 14.4358 13.5601 14.3344 13.7389 14.1556C13.9177 13.9768 14.0191 13.735 14.0213 13.4821C14.0235 13.2293 13.9263 12.9857 13.7506 12.8038L11.1402 10.1934V5.77106C11.1402 5.5153 11.0386 5.27003 10.8578 5.08918C10.6769 4.90834 10.4317 4.80674 10.1759 4.80674Z" fill="#E4B5BF"/>
</svg>
