<svg width="42" height="42" viewBox="0 0 42 42" fill="none" xmlns="http://www.w3.org/2000/svg">
<g id="Group 10443">
<g id="Ellipse 210" filter="url(#filter0_b_2033_613)">
<circle cx="20.7437" cy="20.8494" r="20.5325" fill="#51CB5F"/>
</g>
<g id="Group 954">
<g id="Group 9956">
<path id="Vector" d="M16.1449 28.9283C17.5039 29.706 19.0729 30.1474 20.7457 30.1474C25.8739 30.1474 30.0417 25.9768 30.0417 20.8494C30.0417 15.722 25.8739 11.5513 20.7457 11.5513H20.7416C15.6135 11.5513 11.4456 15.7208 11.4456 20.8494C11.4456 22.6492 11.9598 24.3352 12.8518 25.7613L12.0399 28.1813L11.2662 30.4879L13.5835 29.7471L16.1449 28.9283Z" stroke="white" stroke-width="2.46469"/>
<g id="Group 9955">
<path id="Vector_2" d="M24.7624 24.7998L24.694 24.8683C24.3528 25.2122 23.8955 25.4164 23.4118 25.441H23.0741C21.2876 25.441 19.8515 24.7742 18.3343 23.2612C16.723 21.6498 16.0734 20.1326 16.1632 18.1836H16.1631C16.1876 17.6998 16.3918 17.2426 16.7358 16.9014L16.8042 16.833C17.2368 16.3985 17.8484 16.1925 18.4558 16.2765C19.0631 16.3605 19.5959 16.7248 19.8944 17.2604L19.9884 17.4314H19.9883C20.107 17.6476 20.1525 17.8966 20.1178 18.1409C20.0832 18.3851 19.9702 18.6116 19.796 18.7863L19.2233 19.359C19.554 19.9954 19.9871 20.573 20.5055 21.0686C21.0011 21.587 21.5787 22.0202 22.2151 22.3508L22.7835 21.7866C22.9623 21.611 23.194 21.4991 23.4428 21.4681C23.6915 21.4372 23.9434 21.489 24.1598 21.6156L24.3308 21.7097C24.8664 22.0082 25.2307 22.5408 25.3146 23.1483C25.3987 23.7556 25.1926 24.3671 24.7582 24.7998L24.7624 24.7998Z" fill="white"/>
</g>
</g>
</g>
</g>
<defs>
<filter id="filter0_b_2033_613" x="-6.78882" y="-6.68311" width="55.0649" height="55.0649" filterUnits="userSpaceOnUse" color-interpolation-filters="sRGB">
<feFlood flood-opacity="0" result="BackgroundImageFix"/>
<feGaussianBlur in="BackgroundImageFix" stdDeviation="3.5"/>
<feComposite in2="SourceAlpha" operator="in" result="effect1_backgroundBlur_2033_613"/>
<feBlend mode="normal" in="SourceGraphic" in2="effect1_backgroundBlur_2033_613" result="shape"/>
</filter>
</defs>
</svg>
