<svg width="42" height="42" viewBox="0 0 42 42" fill="none" xmlns="http://www.w3.org/2000/svg">
<g id="Group 10444">
<g id="Group 10445">
<circle id="Ellipse 210" cx="20.6594" cy="20.8494" r="20.5325" fill="url(#paint0_linear_2033_620)"/>
<g id="Group 1914">
<path id="Instagram" d="M24.7771 30.502H16.5411C14.9317 30.5002 13.3888 29.8937 12.2509 28.8155C11.1129 27.7373 10.4729 26.2755 10.4712 24.7507L10.4712 16.9476C10.473 15.4229 11.1131 13.9612 12.251 12.8831C13.389 11.8049 14.9318 11.1985 16.5411 11.1968H24.7771C26.3865 11.1984 27.9294 11.8048 29.0675 12.8829C30.2055 13.961 30.8456 15.4229 30.8474 16.9476V24.7507C30.8457 26.2755 30.2056 27.7375 29.0676 28.8157C27.9296 29.8939 26.3865 30.5003 24.7771 30.502ZM16.5411 13.1385C15.4752 13.1397 14.4533 13.5414 13.6996 14.2555C12.9459 14.9696 12.5219 15.9377 12.5207 16.9476V24.7507C12.5219 25.7605 12.9459 26.7287 13.6996 27.4427C14.4533 28.1567 15.4752 28.5583 16.5411 28.5594H24.7771C25.8429 28.5583 26.8648 28.1567 27.6184 27.4427C28.3721 26.7286 28.796 25.7605 28.7971 24.7507V16.9476C28.796 15.9378 28.3721 14.9696 27.6185 14.2555C26.8648 13.5414 25.843 13.1397 24.7771 13.1385H16.5411ZM20.658 25.8416C19.6158 25.8413 18.5972 25.5482 17.7308 24.9994C16.8644 24.4506 16.1892 23.6707 15.7907 22.7584C15.3921 21.846 15.288 20.8422 15.4916 19.8738C15.6951 18.9054 16.1972 18.0159 16.9343 17.3179C17.6714 16.6198 18.6104 16.1445 19.6326 15.952C20.6548 15.7596 21.7143 15.8586 22.6771 16.2366C23.6399 16.6146 24.4627 17.2546 25.0417 18.0756C25.6206 18.8967 25.9295 19.862 25.9294 20.8494C25.9281 22.1732 25.3724 23.4424 24.3843 24.3784C23.3963 25.3145 22.0566 25.8409 20.6593 25.842L20.658 25.8416ZM20.658 17.7968C20.0211 17.7968 19.3985 17.9757 18.869 18.311C18.3394 18.6462 17.9267 19.1227 17.6829 19.6802C17.4392 20.2377 17.3754 20.8511 17.4997 21.443C17.6239 22.0348 17.9306 22.5784 18.381 23.0051C18.8314 23.4318 19.4051 23.7223 20.0298 23.8401C20.6545 23.9578 21.3019 23.8974 21.8904 23.6664C22.4788 23.4355 22.9817 23.0445 23.3355 22.5428C23.6894 22.041 23.8782 21.4512 23.8782 20.8477C23.8769 20.0393 23.5373 19.2644 22.9339 18.6928C22.3305 18.1212 21.5126 17.7996 20.6593 17.7984L20.658 17.7968ZM25.938 17.0886C25.6882 17.0885 25.4441 17.0183 25.2364 16.8867C25.0288 16.7552 24.867 16.5682 24.7714 16.3496C24.6759 16.1309 24.651 15.8903 24.6998 15.6582C24.7486 15.4261 24.869 15.2129 25.0457 15.0456C25.2224 14.8784 25.4475 14.7645 25.6925 14.7184C25.9375 14.6723 26.1914 14.6961 26.4221 14.7867C26.6529 14.8773 26.8501 15.0308 26.9888 15.2276C27.1275 15.4244 27.2015 15.6558 27.2014 15.8924C27.2014 16.2098 27.0685 16.5141 26.8319 16.7387C26.5952 16.9633 26.2742 17.0897 25.9393 17.0902L25.938 17.0886Z" fill="white"/>
</g>
</g>
</g>
<defs>
<linearGradient id="paint0_linear_2033_620" x1="20.6594" y1="0.316895" x2="20.6594" y2="41.3818" gradientUnits="userSpaceOnUse">
<stop stop-color="#D803DF"/>
<stop offset="1" stop-color="#FFA800"/>
</linearGradient>
</defs>
</svg>
