<svg width="63" height="63" viewBox="0 0 63 63" fill="none" xmlns="http://www.w3.org/2000/svg">
<g id="design_40lz0wzeilwd 1" clip-path="url(#clip0_2029_378)">
<path id="Vector" d="M32.8863 43.0415C32.8863 43.0415 15.5204 60.4072 15.121 60.8067C13.0141 62.9499 9.56343 62.9499 7.42043 60.8067L4.84138 58.2642L4.80505 58.2279V58.1915L2.29865 55.6851C0.155657 53.5419 0.155657 50.0914 2.29865 47.9845C2.29865 47.9845 2.77092 47.5123 3.57014 46.6768L8.94597 49.4736L6.14895 44.1341C6.91184 43.3349 7.6051 42.678 8.47674 41.7699L11.2738 41.9879L11.0558 39.1911C11.9275 38.3191 12.7992 37.4838 13.6348 36.6485L18.9744 39.409L16.2138 34.0693C18.357 31.89 19.9552 30.3281 20.0641 30.219C20.4275 30.5822 23.4422 33.5971 26.4571 36.612C29.5807 39.7359 32.7047 42.8596 32.8863 43.0415Z" fill="#FFE470"/>
<path id="Vector_2" d="M32.8862 43.0415C32.8862 43.0415 15.5203 60.4072 15.1209 60.8067C13.014 62.95 9.56331 62.95 7.42031 60.8067L4.84126 58.2642L4.80493 58.2279V58.1916L26.457 36.6123C29.5806 39.7359 32.7046 42.8597 32.8862 43.0415Z" fill="#DABB4A"/>
<path id="Vector_3" d="M61.1097 14.8299C61.1097 14.8662 43.5655 32.3983 43.1658 32.7617C42.8026 32.3983 39.7876 29.3836 36.773 26.3687C33.649 23.2448 30.5251 20.1211 30.3435 19.9392C30.5251 19.7212 32.0869 18.1958 34.1938 16.0889L39.5333 18.8859L36.7365 13.5101C37.5718 12.6746 38.4436 11.8028 39.3153 10.9311L42.1124 11.149L41.8944 8.38845C42.8025 7.48037 43.6378 6.65717 44.4008 5.8582L49.7766 8.65498L46.9796 3.27926C47.706 2.55282 48.2148 2.08043 48.2874 2.00802C50.3941 -0.135219 53.8448 -0.0988908 55.988 2.00802L58.5306 4.58683L58.6032 4.62316L61.1096 7.12944C63.2165 9.27256 63.2165 12.7231 61.1097 14.8299Z" fill="#FFE470"/>
<path id="Vector_4" d="M61.1096 14.8299C61.1096 14.8662 43.5655 32.3983 43.1657 32.7617C42.8026 32.3983 39.7876 29.3836 36.7729 26.3687L58.6032 4.62292L61.1096 7.1292C63.2164 9.27256 63.2164 12.7231 61.1096 14.8299Z" fill="#DABB4A"/>
<g id="Group">
<path id="Vector_5" d="M13.6319 46.1532C14.0967 46.1532 14.5613 45.9758 14.916 45.6211C15.6254 44.9117 15.6254 43.7623 14.916 43.0529L11.0628 39.1997C10.1926 40.0699 9.3326 40.9299 8.49463 41.7679L12.3478 45.6211C12.7025 45.9758 13.1673 46.1532 13.6319 46.1532Z" fill="#DDC56A"/>
<path id="Vector_6" d="M12.5781 53.1061C12.2149 53.4695 11.7428 53.651 11.2704 53.651C10.798 53.651 10.3623 53.4694 9.99893 53.1061L9.96285 53.0698L3.56982 46.677C4.22361 46.023 5.13169 45.1513 6.14864 44.1344L12.5417 50.4911L12.578 50.5274C13.2683 51.2536 13.2683 52.416 12.5781 53.1061Z" fill="#DDC56A"/>
<path id="Vector_7" d="M22.6066 43.0415C22.2795 43.4047 21.8076 43.5862 21.3354 43.5862C20.8631 43.5862 20.3909 43.4046 20.0639 43.0415L20.0275 43.0052L13.6348 36.6485C14.5428 35.7041 15.4146 34.8687 16.2136 34.0695L22.6066 40.4625V40.4988C23.3333 41.1889 23.3333 42.3514 22.6066 43.0415Z" fill="#DDC56A"/>
<path id="Vector_8" d="M44.4539 15.3311C44.9187 15.3311 45.3833 15.1537 45.738 14.7991C46.4474 14.0897 46.4474 12.9386 45.738 12.2309L41.8846 8.37854C41.048 9.21481 40.1853 10.0778 39.3164 10.9467L43.1699 14.7989C43.5245 15.1537 43.9893 15.3311 44.4539 15.3311Z" fill="#DDC56A"/>
<path id="Vector_9" d="M53.4089 12.2873C53.0458 12.6507 52.5736 12.7958 52.1377 12.7958C51.6654 12.7958 51.2296 12.6506 50.8662 12.3235L50.8301 12.2872L44.4006 5.85799C45.4539 4.8408 46.3257 3.96904 46.9794 3.27893L53.4089 9.7084C53.4452 9.74449 53.4452 9.74449 53.4452 9.78094C54.0992 10.5074 54.0628 11.5971 53.4089 12.2873Z" fill="#DDC56A"/>
<path id="Vector_10" d="M43.1657 22.5184C42.8025 22.8455 42.3667 23.0269 41.8944 23.0269C41.4222 23.0269 40.9864 22.8452 40.6232 22.5184H40.5869L34.1938 16.0889C34.9567 15.29 35.8284 14.4182 36.7365 13.5101L43.202 19.9757C43.8921 20.6659 43.8921 21.792 43.1657 22.5184Z" fill="#DDC56A"/>
</g>
<path id="Vector_11" d="M58.4975 45.3602L55.7005 55.4217L45.6388 58.2188L9.01489 21.5877L10.5407 14.9041L12.8654 12.5794L15.1901 10.2548L21.8373 8.72913L58.4975 45.3602Z" fill="#A59E85"/>
<path id="Vector_12" d="M55.7005 55.4216L45.6388 58.2187L9.01489 21.5876L10.5407 14.904L12.8654 12.5793L55.7005 55.4216Z" fill="#F0E6C3"/>
<path id="Vector_13" d="M55.7005 55.4216C55.3373 55.785 54.8652 55.9665 54.4292 55.9665C53.957 55.9665 53.4848 55.7849 53.1214 55.4216L12.8654 15.1583C12.1389 14.4318 12.1389 13.3058 12.8654 12.5795C13.5553 11.8894 14.7176 11.8894 15.4442 12.5795L55.7005 52.8429C56.3906 53.5691 56.3906 54.7315 55.7005 55.4216Z" fill="#DDC56A"/>
<path id="Vector_14" d="M55.7005 55.4216C55.3373 55.785 54.8652 55.9665 54.4292 55.9665C53.957 55.9665 53.4848 55.7849 53.1214 55.4216L12.8654 15.1583C12.1389 14.4318 12.1389 13.3058 12.8654 12.5795L55.7005 55.4216Z" fill="#A59E85"/>
<path id="Vector_15" d="M61.0764 47.9755C60.7859 47.6847 58.8607 45.7234 58.4976 45.3604C58.2796 45.5783 55.192 48.6657 52.0681 51.7896C49.0532 54.8046 46.0022 57.8558 45.6387 58.2191C45.9294 58.5098 47.891 60.4712 48.2541 60.8342C50.361 62.9411 53.8114 62.9411 55.9546 60.8342L58.5337 58.2554L61.0762 55.6763C63.2197 53.5692 63.2197 50.1186 61.0764 47.9755Z" fill="#9FD3E2"/>
<path id="Vector_16" d="M21.8372 8.72906L15.4441 15.1583L9.01467 21.5878L0.829942 2.86885C0.539196 2.21506 0.720836 1.45217 1.22955 0.943578C1.73802 0.435227 2.50104 0.289793 3.15482 0.543969L21.8372 8.72906Z" fill="#F0D2D9"/>
<path id="Vector_17" d="M1.2295 0.943604L15.4442 15.1583L9.01474 21.5878L0.829888 2.86887C0.539263 2.21509 0.720783 1.45208 1.2295 0.943604Z" fill="#E4B5BF"/>
<path id="Vector_18" d="M58.5337 58.2551L55.9546 60.8339C53.8114 62.9408 50.361 62.9408 48.2541 60.8339C47.8909 60.4708 45.9293 58.5093 45.6387 58.2188C46.0021 57.8556 49.0532 54.8043 52.0681 51.7893L58.5337 58.2551Z" fill="#8AC1D1"/>
<g id="Group_2">
<path id="Vector_19" d="M12.5782 50.5272C13.2683 51.2535 13.2683 52.4159 12.5782 53.106C12.215 53.4694 11.7428 53.6509 11.2705 53.6509C10.7981 53.6509 10.3624 53.4693 9.99898 53.106L9.96289 53.0697L12.5417 50.4908L12.5782 50.5272Z" fill="#DDC56A"/>
<path id="Vector_20" d="M22.6066 40.4986C23.3331 41.1887 23.3331 42.3511 22.6066 43.0412C22.2796 43.4044 21.8077 43.5859 21.3354 43.5859C20.8631 43.5859 20.391 43.4043 20.0639 43.0412L20.0276 43.0049L22.6066 40.4623V40.4986Z" fill="#DDC56A"/>
<path id="Vector_21" d="M43.2021 19.9757C43.8922 20.6658 43.8922 21.7919 43.1658 22.5183C42.8026 22.8454 42.3668 23.0268 41.8945 23.0268C41.4223 23.0268 40.9865 22.8451 40.6233 22.5183L43.2021 19.9757Z" fill="#DDC56A"/>
<path id="Vector_22" d="M53.4089 12.2873C53.0458 12.6507 52.5736 12.7958 52.1377 12.7958C51.6654 12.7958 51.2296 12.6506 50.8662 12.3235L53.4453 9.78088C54.0992 10.5073 54.0628 11.597 53.4089 12.2873Z" fill="#DDC56A"/>
</g>
</g>
<defs>
<clipPath id="clip0_2029_378">
<rect width="62" height="62" fill="white" transform="translate(0.69043 0.414185)"/>
</clipPath>
</defs>
</svg>
