<svg width="71" height="69" viewBox="0 0 71 69" fill="none" xmlns="http://www.w3.org/2000/svg">
<g id="advertisement_50q45wyvlwnh 1">
<path id="Vector" d="M51.7658 64.0374C51.1941 64.0374 50.6523 63.6992 50.4223 63.1402L42.1509 43.0376H29.0547L20.7833 63.1402C20.4799 63.8783 19.6327 64.232 18.8905 63.9294C18.1488 63.6273 17.7938 62.7839 18.0975 62.0458L26.738 41.0463C26.9612 40.5037 27.4917 40.1494 28.0809 40.1494H43.1248C43.7139 40.1494 44.2445 40.5037 44.4677 41.0463L53.1081 62.0458C53.4118 62.7839 53.0568 63.6273 52.3151 63.9294C52.1351 64.0027 51.9489 64.0374 51.7658 64.0374Z" fill="#DDC56F"/>
<path id="Vector_2" d="M9.51685 5.86218H61.6887V43.6424H9.51685V5.86218Z" fill="#FFE89C"/>
<path id="Vector_3" d="M8.45686 8.79046C7.85641 8.79046 7.29068 8.55777 6.86383 8.13498C6.44123 7.71218 6.2074 7.14921 6.2074 6.55197C6.2074 5.31772 7.21656 4.31348 8.45686 4.31348H62.7485C63.9888 4.31348 64.998 5.31772 64.998 6.55197C64.998 7.78636 63.9888 8.79046 62.7485 8.79046H8.45686Z" fill="#DDC56F"/>
<path id="Vector_4" d="M8.45686 47.4042C7.85641 47.4042 7.29068 47.1715 6.86383 46.7487C6.44123 46.326 6.2074 45.763 6.2074 45.1657C6.2074 43.9315 7.21656 42.9272 8.45686 42.9272H62.7485C63.9888 42.9272 64.998 43.9315 64.998 45.1657C64.998 46.4001 63.9888 47.4042 62.7485 47.4042H8.45686Z" fill="#DDC56F"/>
<path id="Vector_5" d="M12.8088 12.9382H58.3966V31.6822H12.8088V12.9382Z" fill="#E4B5BF"/>
<path id="Vector_6" d="M23.1924 52.0299H48.013V54.9181H23.1924V52.0299Z" fill="#DDC56F"/>
<g id="Group">
<path id="Vector_7" d="M12.8088 34.0244H19.2819V40.1494H12.8088V34.0244Z" fill="#E4B5BF"/>
<path id="Vector_8" d="M22.5875 34.0244H29.0606V40.1494H22.5875V34.0244Z" fill="#E4B5BF"/>
<path id="Vector_9" d="M32.3662 34.0244H38.8393V40.1494H32.3662V34.0244Z" fill="#E4B5BF"/>
<path id="Vector_10" d="M42.1449 34.0244H48.6179V40.1494H42.1449V34.0244Z" fill="#E4B5BF"/>
<path id="Vector_11" d="M51.9236 34.0244H58.3966V40.1494H51.9236V34.0244Z" fill="#E4B5BF"/>
</g>
</g>
</svg>
