<svg width="70" height="70" viewBox="0 0 70 70" fill="none" xmlns="http://www.w3.org/2000/svg">
<g id="money_28opxu0h62da 1" clip-path="url(#clip0_2024_297)">
<g id="Group">
<path id="Vector" d="M59.6175 4.76656C59.4313 4.46218 59.1002 4.27661 58.7433 4.27661H30.7734C30.4167 4.27661 30.0855 4.46218 29.8993 4.76656C29.713 5.07094 29.6986 5.45026 29.8611 5.76786L35.7242 17.2321C35.8994 17.5747 36.2518 17.7902 36.6364 17.7902H52.8804C53.2652 17.7902 53.6175 17.5747 53.7926 17.2321L59.6557 5.76786C59.8181 5.45026 59.8036 5.07108 59.6175 4.76656Z" fill="#B6CEB7"/>
<path id="Vector_2" d="M65.131 32.9186C62.1737 27.7076 58.2906 23.2612 54.1969 20.3988C54.0248 20.2785 53.8198 20.2137 53.6097 20.2137H35.9072C35.6971 20.2137 35.4922 20.2783 35.32 20.3988C31.7166 22.9183 28.1857 26.775 25.3775 31.2581C25.2 31.5415 25.1719 31.8937 25.3023 32.2016C25.9345 33.6946 26.2551 35.2813 26.2551 36.9173C26.2551 41.1931 23.9609 45.1957 20.2676 47.3629C19.9493 47.5498 19.756 47.8933 19.7617 48.2622C19.7717 48.9171 19.8176 49.5614 19.898 50.1774C19.9646 50.6876 20.3994 51.0694 20.9141 51.0694H26.2552V54.9263C26.2552 55.4922 26.714 55.9511 27.2799 55.9511H29.9611V58.7834H27.2799C26.7141 58.7834 26.2552 59.2421 26.2552 59.8081V59.9365C26.2552 60.2776 26.425 60.5963 26.708 60.7868C29.2967 62.5278 35.084 65.4486 44.7584 65.4486C51.1847 65.4486 57.1242 64.0842 61.4829 61.6066C66.8975 58.5292 69.7595 53.8205 69.7595 47.9896C69.7595 43.5303 68.1158 38.1779 65.131 32.9186Z" fill="#B6CEB7"/>
</g>
<g id="Group_2">
<path id="Vector_3" d="M55.0545 5.30139L49.1914 16.7657H52.8804L58.7433 5.30139H55.0545Z" fill="#94B195"/>
</g>
<path id="Vector_4" d="M14.1522 22.7648C6.34854 22.7648 -0.00012207 29.1134 -0.00012207 36.9171C-0.00012207 44.7208 6.34854 51.0693 14.1521 51.0693C21.9556 51.0693 28.3043 44.7206 28.3043 36.9171C28.3045 29.1134 21.9557 22.7648 14.1522 22.7648Z" fill="#FFE89C"/>
<path id="Vector_5" d="M14.1515 46.3388C19.355 46.3388 23.5732 42.1205 23.5732 36.917C23.5732 31.7135 19.355 27.4952 14.1515 27.4952C8.948 27.4952 4.72974 31.7135 4.72974 36.917C4.72974 42.1205 8.948 46.3388 14.1515 46.3388Z" fill="#DDC56F"/>
<g id="Group_3">
<path id="Vector_6" d="M31.3273 60.1893H4.64238C4.26511 60.1893 3.95923 59.8835 3.95923 59.5062V55.2278C3.95923 54.8506 4.26511 54.5447 4.64238 54.5447H31.3272C31.7046 54.5447 32.0103 54.8506 32.0103 55.2278V59.5062C32.0103 59.8836 31.7044 60.1893 31.3273 60.1893Z" fill="#FFE89C"/>
</g>
<g id="Group_4">
<path id="Vector_7" d="M27.368 54.5449H0.683031C0.305757 54.5449 -0.00012207 54.239 -0.00012207 53.8618V49.5835C-0.00012207 49.2063 0.305757 48.9004 0.683031 48.9004H27.368C27.7452 48.9004 28.0511 49.2063 28.0511 49.5835V53.8619C28.051 54.2392 27.7451 54.5449 27.368 54.5449Z" fill="#DDC56F"/>
<path id="Vector_8" d="M27.368 65.8341H0.683031C0.305757 65.8341 -0.00012207 65.5284 -0.00012207 65.151V60.8726C-0.00012207 60.4953 0.305757 60.1895 0.683031 60.1895H27.368C27.7452 60.1895 28.0511 60.4953 28.0511 60.8726V65.151C28.051 65.5281 27.7451 65.8341 27.368 65.8341Z" fill="#DDC56F"/>
</g>
<path id="Vector_9" d="M54.2536 15.741H35.263C33.4739 15.741 32.0182 17.1965 32.0182 18.9857V19.0184C32.0182 20.8075 33.4737 22.2632 35.263 22.2632H54.2535C56.0427 22.2632 57.4984 20.8077 57.4984 19.0184V18.9857C57.4984 17.1965 56.043 15.741 54.2536 15.741Z" fill="#DDC56F"/>
</g>
<defs>
<clipPath id="clip0_2024_297">
<rect width="69.7596" height="69.7596" fill="white" transform="translate(0 0.175537)"/>
</clipPath>
</defs>
</svg>
