<svg width="64" height="64" viewBox="0 0 64 64" fill="none" xmlns="http://www.w3.org/2000/svg">
<g id="Frame" clip-path="url(#clip0_2032_417)">
<path id="Vector" d="M14.741 25.3847H49.358C50.3901 25.3847 51.2269 24.5479 51.2269 23.5158V3.29711C51.2269 2.26504 50.3901 1.42822 49.358 1.42822H14.741C13.7089 1.42822 12.8721 2.26504 12.8721 3.29711V23.5158C12.8721 24.5479 13.7089 25.3847 14.741 25.3847Z" fill="#FFE89C"/>
<path id="Vector_2" d="M49.358 1.42822C50.39 1.42822 51.2268 2.26504 51.2268 3.29711V23.5158C51.2268 24.5479 50.39 25.3847 49.358 25.3847H32.0485V1.42822H49.358Z" fill="#DDC56F"/>
<path id="Vector_3" d="M6.49903 54.6832H57.5975C61.0604 54.6832 63.8778 51.8657 63.8778 48.4029V27.9273C63.8778 24.4639 61.0604 21.6465 57.5975 21.6465H6.49903C3.03665 21.6465 0.219238 24.4639 0.219238 27.9273V48.4029C0.219238 51.8657 3.03665 54.6832 6.49903 54.6832Z" fill="#696174"/>
<path id="Vector_4" d="M63.8778 31.6034V48.4029C63.8778 51.8658 61.0604 54.6832 57.5975 54.6832H6.49903C3.03665 54.6832 0.219238 51.8658 0.219238 48.4029V31.6034H63.8778Z" fill="#8AC1D1"/>
<path id="Vector_5" d="M63.8777 31.6034V48.4029C63.8777 51.8658 61.0603 54.6832 57.5975 54.6832H32.0485V31.6034H63.8777Z" fill="#8AC1D1"/>
<path id="Vector_6" d="M0.219238 27.9273C0.219238 24.4639 3.03665 21.6465 6.49903 21.6465H57.5975C61.0604 21.6465 63.8778 24.4639 63.8778 27.9273V31.6033H0.219238V27.9273Z" fill="#9FD3E2"/>
<path id="Vector_7" d="M32.0485 21.6465H57.5975C61.0603 21.6465 63.8777 24.4639 63.8777 27.9273V31.6033H32.0485V21.6465Z" fill="#9FD3E2"/>
<path id="Vector_8" d="M15.5058 62.5132H48.5911C49.6231 62.5132 50.46 61.6763 50.46 60.6443V39.139C50.46 38.107 49.6231 37.2701 48.5911 37.2701H15.5058C14.4738 37.2701 13.637 38.107 13.637 39.139V60.6443C13.637 61.6763 14.4738 62.5132 15.5058 62.5132Z" fill="#FFE89C"/>
<path id="Vector_9" d="M50.46 39.139V60.6443C50.46 61.6763 49.6231 62.5132 48.5911 62.5132H32.0485V37.2701H48.5911C49.6231 37.2701 50.46 38.107 50.46 39.139Z" fill="#DDC56F"/>
<path id="Vector_10" d="M23.4787 55.4102H40.6183C41.6503 55.4102 42.4871 54.5734 42.4871 53.5409C42.4871 52.5088 41.6503 51.672 40.6183 51.672H23.4787C22.4467 51.672 21.6099 52.5088 21.6099 53.5409C21.6099 54.5734 22.4467 55.4102 23.4787 55.4102Z" fill="#C6C0AC"/>
<path id="Vector_11" d="M40.6182 51.672C41.6503 51.672 42.4871 52.5088 42.4871 53.5409C42.4871 54.5729 41.6503 55.4098 40.6182 55.4098H32.0485V51.672H40.6182Z" fill="#A59E85"/>
<path id="Vector_12" d="M23.4787 47.8094H40.6183C41.6503 47.8094 42.4871 46.9726 42.4871 45.9405C42.4871 44.908 41.6503 44.0712 40.6183 44.0712H23.4787C22.4467 44.0712 21.6099 44.908 21.6099 45.9405C21.6099 46.9726 22.4467 47.8094 23.4787 47.8094Z" fill="#C6C0AC"/>
<path id="Vector_13" d="M40.6182 44.0712C41.6503 44.0712 42.4871 44.908 42.4871 45.94C42.4871 46.9726 41.6503 47.8094 40.6182 47.8094H32.0485V44.0712H40.6182Z" fill="#A59E85"/>
</g>
<defs>
<clipPath id="clip0_2032_417">
<rect width="63.6586" height="63.6586" fill="white" transform="translate(0.219238 0.184937)"/>
</clipPath>
</defs>
</svg>
