<svg width="85" height="86" viewBox="0 0 85 86" fill="none" xmlns="http://www.w3.org/2000/svg">
<g id="Frame">
<g id="Group">
<path id="Vector" d="M63.2335 67.2539L49.2801 53.1344L53.2702 49.0967C53.6565 48.7059 54.1804 48.4863 54.7266 48.4863C55.2729 48.4863 55.7968 48.7059 56.183 49.0967L67.2255 60.2706C67.6117 60.6615 67.8287 61.1916 67.8287 61.7444C67.8287 62.2971 67.6117 62.8272 67.2255 63.2181L63.2354 67.2557L63.2335 67.2539Z" fill="#DABB4A"/>
<path id="Vector_2" d="M32.3016 35.947L18.3487 21.828L22.3388 17.7903C22.7251 17.3995 23.249 17.1799 23.7952 17.1799C24.3415 17.1799 24.8654 17.3995 25.2516 17.7903L36.2941 28.9642C36.6803 29.3551 36.8973 29.8852 36.8973 30.438C36.8973 30.9907 36.6803 31.5208 36.2941 31.9117L32.304 35.9493L32.3016 35.947Z" fill="#DABB4A"/>
<path id="Vector_3" d="M62.3511 68.1362L62.7928 67.6899L63.2338 67.243L49.2773 53.1217L47.8526 54.5634C47.3845 55.0371 46.8288 55.4128 46.2173 55.6692C45.6057 55.9255 44.9502 56.0575 44.2882 56.0575C43.6262 56.0575 42.9707 55.9255 42.3591 55.6692C41.7475 55.4128 41.1918 55.0371 40.7238 54.5634L30.8774 44.5985C30.4093 44.1248 30.038 43.5625 29.7846 42.9436C29.5313 42.3248 29.4009 41.6615 29.4009 40.9916C29.4009 40.3217 29.5313 39.6584 29.7846 39.0396C30.038 38.4207 30.4093 37.8584 30.8774 37.3847L32.3021 35.9444L18.347 21.8218L17.9053 22.268L17.4643 22.7149C15.9068 24.2908 14.6714 26.1616 13.8285 28.2206C12.9856 30.2797 12.5518 32.4865 12.5518 34.7152C12.5518 36.9439 12.9856 39.1508 13.8285 41.2098C14.6714 43.2688 15.9068 45.1396 17.4643 46.7155L38.633 68.1362C40.1903 69.7121 42.0391 70.9623 44.0739 71.8152C46.1087 72.6682 48.2896 73.1072 50.492 73.1072C52.6945 73.1072 54.8754 72.6682 56.9102 71.8152C58.945 70.9623 60.7938 69.7121 62.3511 68.1362Z" fill="#E4B5BF"/>
<path id="Vector_4" d="M65.2787 31.1086H56.3248C55.2058 31.1094 54.122 31.5043 53.2595 32.2256L49.1028 35.6953V19.6967C49.1028 18.8217 49.2731 17.9553 49.604 17.1469C49.935 16.3385 50.42 15.604 51.0315 14.9854C51.6429 14.3667 52.3688 13.8759 53.1677 13.5411C53.9666 13.2064 54.8229 13.0341 55.6876 13.0342H65.3345C67.0806 13.0344 68.7551 13.7364 69.9897 14.9858C71.2244 16.2353 71.918 17.9298 71.918 19.6967V24.3896C71.9181 25.272 71.7465 26.1457 71.413 26.9609C71.0794 27.7762 70.5903 28.5169 69.9738 29.1408C69.3573 29.7648 68.6253 30.2597 67.8197 30.5973C67.0141 30.935 66.1507 31.1087 65.2787 31.1086Z" fill="#B6CEB7"/>
<g id="Group_2">
<path id="Vector_5" d="M55.9055 20.3821H65.1166C65.4212 20.3821 65.7133 20.2596 65.9287 20.0417C66.1441 19.8238 66.2651 19.5282 66.2651 19.22C66.2651 18.9118 66.1441 18.6162 65.9287 18.3982C65.7133 18.1803 65.4212 18.0579 65.1166 18.0579H55.9055C55.6009 18.0579 55.3088 18.1803 55.0935 18.3982C54.8781 18.6162 54.7571 18.9118 54.7571 19.22C54.7571 19.5282 54.8781 19.8238 55.0935 20.0417C55.3088 20.2596 55.6009 20.3821 55.9055 20.3821Z" fill="#FCF8DE"/>
<path id="Vector_6" d="M65.1166 23.2607H55.9055C55.6009 23.2607 55.3088 23.3832 55.0935 23.6011C54.8781 23.8191 54.7571 24.1146 54.7571 24.4229C54.7571 24.7311 54.8781 25.0266 55.0935 25.2446C55.3088 25.4625 55.6009 25.585 55.9055 25.585H65.1166C65.4212 25.585 65.7133 25.4625 65.9287 25.2446C66.1441 25.0266 66.2651 24.7311 66.2651 24.4229C66.2651 24.1146 66.1441 23.8191 65.9287 23.6011C65.7133 23.3832 65.4212 23.2607 65.1166 23.2607Z" fill="#FCF8DE"/>
</g>
</g>
</g>
</svg>
